<svg width="400" height="400" viewBox="0 0 400 400" fill="none" xmlns="http://www.w3.org/2000/svg">
<path d="M107.342 40.041C117.189 39.1832 127.367 39.3055 137.263 39.5848C142.983 39.7461 148.973 41.786 154.421 43.525C175.078 52.9641 184.762 62.4348 197.548 80.7489C219.008 111.488 229.522 148.141 245.609 181.532C258.262 207.797 273.803 234.368 304.95 239.599C308.765 240.24 311.121 239.82 312.52 235.734C314.959 227.567 314.192 218.013 313.524 209.602C312.283 199.881 308.395 192.021 319.674 185.896C321.453 184.931 323.644 184.832 325.63 184.681C337.155 184.359 348.814 184.983 360.326 185.741C367.301 186.2 375.866 185.732 382.515 186.294C383.861 186.417 385.185 186.719 386.452 187.192C396.778 190.93 396.122 197.123 396.353 206.191C397.669 257.951 397.61 323.907 343.815 350.717C334.983 355.119 321.959 355.745 312.126 355.903C276.773 357.283 243.574 344.704 211.574 331.132C209.792 330.376 208.005 329.65 206.294 328.735C206.364 333.756 205.627 341.017 202.03 344.785C200.942 345.944 199.558 346.784 198.028 347.213C192.419 348.738 169.268 348.028 162.111 348.381C154.358 348.429 146.615 348.331 138.863 348.514C131.885 348.681 124.869 349.589 117.903 349.679C106.012 349.832 94.0502 349.683 82.1596 350.252C70.9623 350.788 58.6166 351.68 57.6869 336.795C57.3971 332.318 61.6737 324.804 66.7432 323.984C79.2643 323.17 92.1838 324.109 104.76 323.501C106.562 323.416 108.451 323.331 110.192 322.964C113.904 322.983 118.473 322.242 122.695 322.293C141.004 322.513 159.921 321.861 178.167 322.252C178.087 316.759 178.292 311.403 178.474 305.914C181.915 281.369 206.815 299.473 218.531 304.551C230.546 309.759 244.083 315.62 256.55 319.429C280.75 326.823 313.014 334.644 337.105 323.251C355.203 314.066 363.29 284.889 366.358 266.448C368.155 257.148 368.103 247.489 368.472 238.052C368.677 232.82 371.026 217.533 368.805 213.412C366.414 211.073 346.285 211.749 341.671 211.671C343.014 222.324 340.797 239.161 336.958 249.311C334.615 253.617 330.824 257.789 327.314 261.209C327.113 261.343 326.912 261.475 326.71 261.606C317.687 267.454 302.714 266.958 292.473 264.858C278.361 261.964 260.501 249.416 250.67 239.146C242.367 230.32 236.575 220.6 230.524 210.256C209.497 174.313 199.283 132.811 177.071 97.618C167.004 81.6688 153.921 70.6133 134.818 67.0207C108.516 62.0739 79.6166 76.4821 65.2135 98.7532C53.1744 118.106 45.3026 142.656 40.8526 164.791C37.2174 182.874 35.7891 201.931 34.7164 220.268C34.1419 231.523 35.0221 243.992 33.9188 254.988C33.0857 263.29 23.8309 266.968 15.971 264.932C4.09913 261.856 8.55628 247.453 7.706 238.359C8.05057 226.361 7.30163 214.001 8.14722 202.038C9.41132 184.154 12.1207 166.402 16.3054 149.028C23.621 118.655 35.1302 88.7395 57.2338 65.9719C62.8451 60.1918 72.2084 53.7078 79.0354 49.6481C85.0424 46.5055 97.6912 41.8727 104.547 40.834L107.342 40.041Z" fill="#DB7A20"/>
<path d="M351.317 84.9665C373.778 82.6236 393.934 98.8154 396.485 121.253C399.036 143.692 383.033 163.995 360.619 166.756C337.909 169.553 317.277 153.291 314.692 130.556C312.106 107.82 328.559 87.3408 351.317 84.9665ZM343.313 103.299L346.338 106.012C347.59 107.12 347.44 107.358 348.815 107.522C350.023 106.172 349.286 102.083 349.127 100.268C348.906 100.154 348.521 99.9287 348.28 99.8751C346.353 101.509 345.631 102.188 343.313 103.299ZM366.47 106.457C367.754 105.049 367.868 105.356 368.146 103.749C367.773 102.402 365.525 100.725 364.283 100.162C364.278 102.026 363.866 105.744 364.432 107.203L364.987 107.453C365.479 107.139 366.017 106.819 366.47 106.457Z" fill="#1F37AE"/>
<path d="M332.752 114.523C334.157 114.914 336.448 117.106 336.782 118.547L336.208 119.326C334.584 119.83 333.629 120.444 332.273 119.309C331.848 117.954 332.447 115.983 332.752 114.523Z" fill="#F6F6FE"/>
<path d="M347.498 146.332C348.323 146.343 347.915 146.264 348.724 146.733C348.994 148.408 347.295 150.707 346.365 152.143C345.312 151.417 344.887 150.282 345.029 149.034C345.651 147.575 346.204 147.288 347.498 146.332Z" fill="#F6F6FE"/>
<path d="M363.996 146.585C365.092 146.859 365.454 147.275 366.288 147.998C366.843 149.61 366.761 148.998 366.25 150.763C365.088 151.389 365.465 151.415 364.433 151.201C363.725 150.146 363.97 147.981 363.996 146.585Z" fill="#F6F6FE"/>
<path d="M378.993 116.303C379.504 116.526 379.449 116.634 379.824 117.165C379.622 118.925 377.761 119.761 376.356 120.486L375.642 119.828L375.714 119.133C376.836 117.901 377.663 117.314 378.993 116.303Z" fill="#F6F6FE"/>
<path d="M129.41 118.76C145.258 116.824 159.685 128.078 161.663 143.921C163.642 159.765 152.426 174.221 136.588 176.242C120.69 178.271 106.166 167.003 104.18 151.1C102.194 135.196 113.501 120.703 129.41 118.76Z" fill="#4B9040"/>
</svg>
