<svg width="400" height="400" viewBox="0 0 400 400" fill="none" xmlns="http://www.w3.org/2000/svg">
<path fill-rule="evenodd" clip-rule="evenodd" d="M112.703 186.867C112.703 191.8 113.237 195.783 114.17 198.7C115.237 201.633 116.57 204.833 118.437 208.3C119.103 209.35 119.37 210.417 119.37 211.35C119.37 212.683 118.57 214.017 116.837 215.35L108.453 220.933C107.44 221.664 106.235 222.081 104.987 222.133C103.653 222.133 102.32 221.467 101.003 220.267C99.2129 218.341 97.6111 216.248 96.22 214.017C94.7301 211.461 93.351 208.841 92.0866 206.167C81.72 218.4 68.6699 224.517 52.97 224.517C41.8033 224.517 32.8866 221.333 26.37 214.95C19.87 208.55 16.5366 200.05 16.5366 189.4C16.5366 178.1 20.5366 168.9 28.6366 162C36.7533 155.083 47.52 151.617 61.22 151.617C65.7533 151.617 70.4033 152.017 75.32 152.683C80.2533 153.35 85.32 154.417 90.62 155.617V145.9C90.62 135.783 88.5033 128.733 84.37 124.617C80.12 120.483 72.9366 118.5 62.7033 118.5C58.0366 118.5 53.2366 119.017 48.32 120.217C43.4033 121.417 38.6033 122.883 33.9533 124.75C32.4352 125.424 30.8767 126.003 29.2866 126.483C28.6011 126.704 27.8894 126.833 27.17 126.867C25.3033 126.867 24.37 125.533 24.37 122.75V116.233C24.37 114.1 24.6366 112.5 25.3033 111.567C26.3101 110.357 27.5895 109.403 29.0366 108.783C34.3668 106.137 39.9884 104.123 45.7866 102.783C52.5703 101.047 59.5512 100.201 66.5533 100.267C82.3866 100.267 93.9533 103.867 101.403 111.05C108.737 118.217 112.437 129.133 112.437 143.767V186.867H112.703ZM58.7033 207.1C63.0866 207.1 67.6033 206.3 72.4033 204.7C77.2822 203.014 81.6367 200.084 85.0366 196.2C87.1855 193.743 88.737 190.823 89.57 187.667C90.3533 184.483 90.9033 180.617 90.9033 176.1V170.517C86.8656 169.532 82.7758 168.776 78.6533 168.25C74.5073 167.723 70.3325 167.456 66.1533 167.45C57.2366 167.45 50.72 169.183 46.32 172.783C41.9366 176.367 39.82 181.417 39.82 188.067C39.82 194.317 41.4033 198.983 44.7366 202.167C47.92 205.5 52.57 207.1 58.7033 207.1ZM165.537 221.467C163.137 221.467 161.537 221.067 160.47 220.133C159.403 219.333 158.47 217.467 157.67 214.95L126.42 112.1C125.812 110.375 125.409 108.585 125.22 106.767C125.22 104.633 126.287 103.433 128.403 103.433H141.453C143.97 103.433 145.703 103.85 146.62 104.767C147.703 105.567 148.503 107.433 149.287 109.967L171.653 198.033L192.403 109.967C193.07 107.3 193.87 105.567 194.92 104.767C196.519 103.786 198.381 103.321 200.253 103.433H210.887C213.42 103.433 215.153 103.85 216.22 104.767C217.27 105.567 218.22 107.433 218.737 109.967L239.753 199.1L262.77 109.967C263.57 107.3 264.503 105.567 265.437 104.767C266.98 103.786 268.795 103.32 270.62 103.433H283.003C285.12 103.433 286.337 104.517 286.337 106.767C286.337 107.433 286.187 108.1 286.053 108.9C285.845 110.037 285.532 111.153 285.12 112.233L253.07 215.067C252.27 217.733 251.337 219.45 250.27 220.25C248.768 221.213 247.001 221.68 245.22 221.583H233.77C231.27 221.583 229.52 221.183 228.437 220.25C227.387 219.317 226.453 217.583 225.937 214.917L205.32 129.117L184.82 214.783C184.153 217.45 183.37 219.183 182.32 220.117C181.237 221.05 179.37 221.45 176.987 221.45L165.553 221.467H165.537ZM336.47 225.05C329.553 225.05 322.637 224.25 315.987 222.667C309.337 221.067 304.153 219.333 300.687 217.333C298.553 216.15 297.103 214.817 296.57 213.617C296.05 212.44 295.778 211.169 295.77 209.883V203.1C295.77 200.317 296.837 198.983 298.82 198.983C299.62 198.983 300.42 199.117 301.22 199.383C302.02 199.65 303.22 200.183 304.553 200.717C309.07 202.717 313.987 204.3 319.187 205.367C324.52 206.433 329.687 206.967 335.02 206.967C343.387 206.967 349.92 205.5 354.437 202.567C356.602 201.259 358.382 199.401 359.597 197.182C360.812 194.963 361.418 192.462 361.353 189.933C361.402 188.221 361.11 186.515 360.495 184.916C359.88 183.317 358.954 181.855 357.77 180.617C355.37 178.1 350.837 175.833 344.32 173.7L325.037 167.7C315.32 164.65 308.137 160.133 303.753 154.15C299.463 148.628 297.119 141.843 297.087 134.85C297.087 129.267 298.303 124.35 300.687 120.083C303.087 115.833 306.27 112.1 310.27 109.183C314.27 106.117 318.77 103.85 324.103 102.267C329.437 100.667 335.02 100 340.87 100C343.787 100 346.87 100.133 349.787 100.533C352.837 100.933 355.62 101.467 358.42 102C361.087 102.667 363.62 103.333 366.003 104.117C368.403 104.917 370.27 105.717 371.603 106.517C373.174 107.307 374.542 108.448 375.603 109.85C376.462 111.144 376.878 112.683 376.787 114.233V120.483C376.787 123.283 375.72 124.75 373.72 124.75C371.949 124.547 370.234 124.004 368.67 123.15C360.633 119.6 351.922 117.831 343.137 117.967C335.553 117.967 329.553 119.15 325.437 121.683C321.303 124.217 319.187 128.067 319.187 133.517C319.187 137.25 320.52 140.45 323.187 142.967C325.853 145.5 330.753 148.033 337.803 150.3L356.703 156.267C366.27 159.333 373.203 163.6 377.32 169.05C381.437 174.5 383.437 180.75 383.437 187.667C383.437 193.383 382.237 198.583 379.987 203.1C377.621 207.654 374.308 211.649 370.27 214.817C366.137 218.15 361.22 220.533 355.503 222.267C349.503 224.117 343.27 225.05 336.47 225.05Z" fill="black"/>
<path fill-rule="evenodd" clip-rule="evenodd" d="M6.302 257.948C62.702 290.664 132.302 310.498 204.252 310.498C252.819 310.498 306.152 300.381 355.252 279.631C362.585 276.297 368.819 284.414 361.635 289.748C317.869 322.081 254.269 339.231 199.602 339.231C122.969 339.231 53.9353 310.898 1.76867 263.798C-2.348 260.081 1.36867 255.014 6.302 257.948ZM398.485 254.614C403.269 260.614 397.152 301.714 373.735 321.398C370.152 324.464 366.685 322.864 368.285 318.881L371.202 311.564C376.919 296.898 384.569 274.931 379.869 268.981C374.269 261.814 342.869 265.531 328.635 267.264C324.385 267.798 323.719 264.064 327.585 261.264C352.585 243.714 393.702 248.764 398.485 254.614Z" fill="#FF9900"/>
</svg>
