<svg width="400" height="400" viewBox="0 0 400 400" fill="none" xmlns="http://www.w3.org/2000/svg">
<g clip-path="url(#clip0_101_60253)">
<path d="M133.432 11.3821H251.656L128.927 375.228C128.299 377.086 127.386 378.835 126.22 380.412C125.056 381.99 123.653 383.374 122.06 384.517C120.466 385.661 118.708 386.55 116.84 387.149C114.972 387.749 113.025 388.058 111.067 388.058H19.059C16.0724 388.058 13.1256 387.349 10.4686 385.981C7.80872 384.616 5.51268 382.637 3.77103 380.207C2.02825 377.777 0.888131 374.968 0.444728 372.011C0.000222079 369.055 0.269922 366.033 1.22386 363.201L115.567 24.2028C116.191 22.3449 117.105 20.5968 118.274 19.0186C119.437 17.4403 120.846 16.0569 122.434 14.9131C124.027 13.7694 125.785 12.8804 127.653 12.2811C129.521 11.6817 131.469 11.3721 133.427 11.3721V11.3771L133.432 11.3821Z" fill="url(#paint0_linear_101_60253)"/>
<path d="M351.37 388.058H245.213C244.029 388.058 242.845 387.948 241.677 387.724C240.513 387.504 239.369 387.174 238.265 386.74C237.162 386.305 236.103 385.766 235.099 385.137C234.096 384.503 233.155 383.777 232.287 382.969L111.821 270.464C110.547 269.274 109.659 267.729 109.274 266.029C108.888 264.329 109.024 262.552 109.663 260.93C110.301 259.307 111.414 257.915 112.855 256.934C114.298 255.955 116.001 255.431 117.744 255.431H305.216L351.36 388.063L351.37 388.058Z" fill="#0078D4"/>
<path d="M252.08 11.3821L169.322 255.456L304.542 255.426L350.925 388.058H245.168C244.074 388.048 242.98 387.949 241.901 387.754C240.822 387.559 239.764 387.274 238.735 386.895C236.672 386.143 234.753 385.043 233.061 383.643L151.741 307.748L128.977 374.883C128.387 376.561 127.578 378.154 126.569 379.618C124.547 382.562 121.781 384.917 118.553 386.445C116.946 387.206 115.245 387.748 113.494 388.058H19.1138C16.0971 388.068 13.1204 387.349 10.4384 385.961C7.75597 384.574 5.44697 382.561 3.70659 380.093C1.9662 377.625 0.845602 374.774 0.439506 371.782C0.0348799 368.788 0.355183 365.741 1.37347 362.896L115.532 24.4575C116.126 22.5646 117.02 20.7816 118.179 19.1734C119.332 17.5652 120.741 16.1468 122.339 14.9781C123.937 13.8094 125.715 12.9004 127.598 12.2911C129.481 11.6817 131.454 11.3721 133.437 11.3821H252.085H252.08Z" fill="url(#paint1_linear_101_60253)"/>
<path d="M398.777 363.201C399.731 366.034 400 369.054 399.561 372.011C399.117 374.967 397.979 377.776 396.24 380.207C394.497 382.635 392.202 384.614 389.544 385.979C386.885 387.344 383.94 388.057 380.952 388.058H249.188C252.175 388.058 255.121 387.344 257.783 385.98C260.441 384.617 262.738 382.634 264.481 380.207C266.224 377.78 267.363 374.968 267.807 372.011C268.252 369.054 267.982 366.033 267.028 363.201L152.68 24.1926C151.422 20.4582 149.023 17.2126 145.823 14.9129C144.235 13.7692 142.477 12.8852 140.614 12.2858C138.751 11.6865 136.803 11.3818 134.85 11.3818H266.609C268.566 11.3818 270.509 11.6865 272.377 12.2858C274.24 12.8852 275.998 13.7742 277.591 14.9129C279.18 16.0566 280.583 17.4401 281.747 19.0134C282.911 20.5866 283.82 22.3347 284.449 24.1926L398.797 363.201H398.777Z" fill="url(#paint2_linear_101_60253)"/>
</g>
<defs>
<linearGradient id="paint0_linear_101_60253" x1="176.579" y1="39.301" x2="53.7155" y2="402.248" gradientUnits="userSpaceOnUse">
<stop stop-color="#114A8B"/>
<stop offset="1" stop-color="#0669BC"/>
</linearGradient>
<linearGradient id="paint1_linear_101_60253" x1="214.886" y1="208.413" x2="186.468" y2="218.052" gradientUnits="userSpaceOnUse">
<stop stop-opacity="0.3"/>
<stop offset="0.1" stop-opacity="0.2"/>
<stop offset="0.3" stop-opacity="0.1"/>
<stop offset="0.6" stop-opacity="0.1"/>
<stop offset="1" stop-opacity="0"/>
</linearGradient>
<linearGradient id="paint2_linear_101_60253" x1="199.204" y1="28.7126" x2="334.054" y2="387.963" gradientUnits="userSpaceOnUse">
<stop stop-color="#3CCBF4"/>
<stop offset="1" stop-color="#2892DF"/>
</linearGradient>
<clipPath id="clip0_101_60253">
<rect width="400" height="377.44" fill="white" transform="translate(0 11)"/>
</clipPath>
</defs>
</svg>
