<svg width="400" height="400" viewBox="0 0 400 400" fill="none" xmlns="http://www.w3.org/2000/svg">
<path fill-rule="evenodd" clip-rule="evenodd" d="M15 22H373.854C378.777 22 381.967 27.1939 379.741 31.5843L211.863 362.734C208.64 369.092 199.59 369.18 196.244 362.886L15 22ZM218.697 315.415C217.472 317.82 214.034 317.817 212.813 315.41L81 55.55H351.05L218.697 315.415Z" fill="black"/>
<path d="M373.854 22C378.777 22 381.967 27.1939 379.741 31.5843L384.6 22H373.854Z" fill="black"/>
<path d="M373.854 22H15L196.244 362.886M373.854 22C378.777 22 381.967 27.1939 379.741 31.5843M373.854 22H384.6L379.741 31.5843M196.244 362.886C199.59 369.18 208.64 369.092 211.863 362.734M196.244 362.886C199.59 369.18 208.64 369.092 211.863 362.734M211.863 362.734L379.741 31.5843M81 55.55L212.813 315.41C214.034 317.817 217.472 317.82 218.697 315.415L351.05 55.55H81Z" stroke="black" stroke-width="1.1"/>
</svg>
