<svg width="400" height="400" viewBox="0 0 400 400" fill="none" xmlns="http://www.w3.org/2000/svg">
<g clip-path="url(#clip0_101_60227)">
<path d="M361.875 304.75V38.125H95.25V0H38.125V38.125H0V95.25H38.125V361.875H304.75V400H361.875V361.875H400V304.75H361.875ZM381 342.875H342.875V381H323.875V342.875H57.125V76.25H19.125V57.125H57.125V19H76.25V57.125H342.875V323.875H381V342.875Z" fill="#1E74FF"/>
<path d="M76.251 76.2451V323.87H323.876V76.2451H76.251ZM304.751 190.495H247.626V209.495H304.751V304.745H247.626V285.745H228.626V304.745H95.251V285.745H114.376V266.62H95.251V95.2451H304.751V190.495Z" fill="#1E74FF"/>
<path d="M247.625 209.497H228.625V228.622H247.625V209.497Z" fill="#1E74FF"/>
<path d="M228.622 228.625H209.497V247.625H228.622V228.625Z" fill="#1E74FF"/>
<path d="M228.622 266.626H209.497V285.751H228.622V266.626Z" fill="#1E74FF"/>
<path d="M209.503 247.619H190.503V266.619H209.503V247.619Z" fill="#1E74FF"/>
<path d="M133.374 190.496H171.499V171.371H190.499V133.371H171.499V114.246H133.374V133.371H114.374V171.371H133.374V190.496Z" fill="#1E74FF"/>
<path d="M190.499 228.625H133.374V247.625H190.499V228.625Z" fill="#1E74FF"/>
<path d="M133.374 247.619H114.374V266.619H133.374V247.619Z" fill="#1E74FF"/>
</g>
<defs>
<clipPath id="clip0_101_60227">
<rect width="400" height="400" fill="white"/>
</clipPath>
</defs>
</svg>
