<svg width="400" height="400" viewBox="0 0 400 400" fill="none" xmlns="http://www.w3.org/2000/svg">
<g clip-path="url(#clip0_2110_28827)">
<path d="M150.333 117C150.327 140.334 156.446 163.262 168.076 183.491C179.707 203.72 196.443 220.543 216.612 232.278C236.78 244.014 259.676 250.25 283.01 250.365C306.344 250.48 329.3 244.469 349.583 232.933C341.567 317.5 270.333 383.667 183.667 383.667C91.6167 383.667 17 309.05 17 217C17 130.333 83.1667 59.1 167.733 51.0833C156.293 71.1656 150.295 93.8875 150.333 117ZM50.3333 217C50.3333 252.362 64.3809 286.276 89.3858 311.281C114.391 336.286 148.304 350.333 183.667 350.333C207.225 350.332 230.362 344.094 250.728 332.252C271.094 320.411 287.961 303.389 299.617 282.917C294.35 283.417 289.017 283.667 283.667 283.667C191.617 283.667 117 209.05 117 117C117 111.65 117.25 106.333 117.75 101.05C97.2774 112.705 80.2555 129.573 68.4143 149.939C56.5731 170.304 50.3347 193.442 50.3333 217ZM286.4 55.1833L300.333 58.6667V75.3333L286.4 78.8167C280.54 80.2822 275.188 83.3126 270.917 87.5838C266.646 91.8551 263.616 97.2067 262.15 103.067L258.667 117H242L238.517 103.067C237.051 97.2067 234.021 91.8551 229.75 87.5838C225.478 83.3126 220.127 80.2822 214.267 78.8167L200.333 75.3333V58.6667L214.267 55.1833C220.124 53.7151 225.472 50.6836 229.74 46.4125C234.008 42.1415 237.036 36.7913 238.5 30.9333L242 17H258.667L262.15 30.9333C263.616 36.7933 266.646 42.1449 270.917 46.4162C275.188 50.6874 280.54 53.7178 286.4 55.1833ZM369.733 138.517L383.667 142V158.667L369.733 162.15C363.873 163.616 358.522 166.646 354.25 170.917C349.979 175.188 346.949 180.54 345.483 186.4L342 200.333H325.333L321.85 186.4C320.384 180.54 317.354 175.188 313.083 170.917C308.812 166.646 303.46 163.616 297.6 162.15L283.667 158.667V142L297.6 138.517C303.46 137.051 308.812 134.021 313.083 129.75C317.354 125.478 320.384 120.127 321.85 114.267L325.333 100.333H342L345.483 114.267C346.949 120.127 349.979 125.478 354.25 129.75C358.522 134.021 363.873 137.051 369.733 138.517Z" fill="#1E74FF"/>
</g>
<defs>
<clipPath id="clip0_2110_28827">
<rect width="400" height="400" fill="white"/>
</clipPath>
</defs>
</svg>
