<svg width="100" height="100" viewBox="0 0 100 100" fill="none" xmlns="http://www.w3.org/2000/svg">
<path d="M22.8543 99.0007C20.4877 99.0007 18.5793 98.1382 17.3335 96.5091C16.0543 94.8341 15.721 92.4924 16.4168 90.0924L19.2168 80.4465C19.327 80.0677 19.3467 79.6682 19.2744 79.2803C19.202 78.8924 19.0396 78.5269 18.8002 78.2132C18.5578 77.8978 18.2461 77.6424 17.8891 77.4668C17.5322 77.2913 17.1396 77.2002 16.7418 77.2007H8.68768C6.32101 77.2007 4.41268 76.3382 3.16684 74.7091C1.88768 73.0299 1.55434 70.6924 2.25018 68.2924L11.8752 35.3049L12.9377 31.6799C14.3668 26.7632 19.571 22.7632 24.546 22.7632H34.1835C35.3335 22.7632 36.346 22.0132 36.6627 20.9215L39.846 9.95072C41.2752 5.03405 46.4793 1.03822 51.4585 1.03822L72.0627 1.00488H87.146C89.5127 1.00488 91.4252 1.86322 92.6668 3.49238C93.946 5.16738 94.2793 7.50905 93.5835 9.90905L89.271 24.7674C87.8418 29.6757 82.6335 33.6715 77.6585 33.6715L57.0085 33.7132H47.3752C46.8196 33.7115 46.2784 33.8895 45.8323 34.2207C45.3863 34.5519 45.0593 35.0184 44.9002 35.5507L36.8668 63.0674C36.756 63.4469 36.7359 63.8471 36.8083 64.2358C36.8807 64.6245 37.0435 64.9907 37.2835 65.3049C37.7752 65.9424 38.5335 66.3174 39.346 66.3174L52.9918 66.2924H68.0335C70.4002 66.2924 72.3085 67.1507 73.5543 68.784C74.8335 70.459 75.1668 72.8007 74.471 75.2007L70.1543 90.0549C68.7293 94.9674 63.521 98.9632 58.546 98.9632L37.8918 99.0049H22.8502L22.8543 99.0007Z" fill="black"/>
</svg>
