<svg width="400" height="400" viewBox="0 0 400 400" fill="none" xmlns="http://www.w3.org/2000/svg">
<path d="M91.4096 395.987C81.9429 395.987 74.3096 392.537 69.3262 386.021C64.2096 379.321 62.8762 369.954 65.6596 360.354L76.8596 321.771C77.3003 320.255 77.3791 318.657 77.0896 317.106C76.8002 315.554 76.1505 314.092 75.1929 312.837C74.2234 311.576 72.9764 310.554 71.5487 309.852C70.1209 309.149 68.5507 308.785 66.9596 308.787H34.7429C25.2762 308.787 17.6429 305.337 12.6596 298.821C7.5429 292.104 6.20956 282.754 8.9929 273.154L47.4929 141.204L51.7429 126.704C57.4596 107.037 78.2762 91.0372 98.1762 91.0372H136.726C141.326 91.0372 145.376 88.0372 146.643 83.6706L159.376 39.7872C165.093 20.1206 185.91 4.13724 205.826 4.13724L288.243 4.00391H348.576C358.043 4.00391 365.693 7.43724 370.66 13.9539C375.776 20.6539 377.11 30.0206 374.326 39.6206L357.076 99.0539C351.36 118.687 330.526 134.671 310.626 134.671L228.026 134.837H189.493C187.271 134.83 185.106 135.543 183.322 136.867C181.537 138.192 180.229 140.058 179.593 142.187L147.46 252.254C147.016 253.772 146.936 255.373 147.225 256.928C147.515 258.482 148.166 259.947 149.126 261.204C151.093 263.754 154.126 265.254 157.376 265.254L211.96 265.154H272.126C281.593 265.154 289.226 268.587 294.21 275.121C299.326 281.821 300.66 291.187 297.876 300.787L280.61 360.204C274.91 379.854 254.076 395.837 234.176 395.837L151.56 396.004H91.3929L91.4096 395.987Z" fill="#F0FF41"/>
</svg>
