<svg width="400" height="400" viewBox="0 0 400 400" fill="none" xmlns="http://www.w3.org/2000/svg">
<g clip-path="url(#clip0_100_60155)">
<path d="M395.799 74.6959C391.566 72.6293 389.732 76.5793 387.266 78.5959C386.416 79.2459 385.699 80.0959 384.983 80.8626C378.783 87.4793 371.549 91.8126 362.099 91.2959C348.282 90.5293 336.482 94.8626 326.049 105.429C323.832 92.3959 316.466 84.6293 305.266 79.6293C299.399 77.0293 293.466 74.4459 289.349 68.7959C286.482 64.7793 285.699 60.2959 284.266 55.8959C283.349 53.2293 282.433 50.5126 279.383 50.0626C276.049 49.5459 274.749 52.3293 273.449 54.6626C268.232 64.1959 266.216 74.6959 266.416 85.3293C266.866 109.263 276.966 128.329 297.049 141.879C299.332 143.429 299.916 144.996 299.199 147.263C297.832 151.929 296.199 156.463 294.766 161.146C293.849 164.129 292.483 164.763 289.283 163.479C278.47 158.832 268.649 152.156 260.349 143.813C246.066 130.013 233.166 114.779 217.066 102.846C213.335 100.09 209.505 97.4711 205.582 94.9959C189.166 79.0459 207.749 65.9459 212.049 64.3959C216.549 62.7626 213.599 57.1959 199.066 57.2626C184.532 57.3293 171.232 62.1793 154.282 68.6626C151.764 69.6278 149.172 70.3913 146.532 70.9459C130.693 67.9615 114.493 67.3884 98.4825 69.2459C67.0658 72.7459 41.9825 87.6126 23.5325 112.963C1.36583 143.429 -3.85084 178.063 2.53249 214.163C9.24916 252.229 28.6825 283.746 58.5325 308.379C89.4992 333.929 125.149 346.446 165.832 344.046C190.532 342.629 218.049 339.313 249.066 313.046C256.899 316.946 265.099 318.496 278.733 319.663C289.233 320.646 299.333 319.163 307.149 317.529C319.399 314.929 318.549 303.579 314.132 301.513C278.216 284.779 286.099 291.596 278.916 286.079C297.183 264.479 324.683 242.046 335.449 169.363C336.283 163.579 335.566 159.946 335.449 155.279C335.383 152.446 336.032 151.329 339.282 151.013C348.3 150.077 357.047 147.388 365.033 143.096C388.299 130.379 397.699 109.513 399.916 84.4793C400.249 80.6459 399.849 76.7126 395.799 74.6959ZM193.016 299.996C158.199 272.629 141.316 263.613 134.349 263.996C127.816 264.396 128.999 271.846 130.432 276.713C131.932 281.513 133.882 284.813 136.616 289.029C138.516 291.813 139.816 295.963 134.732 299.079C123.516 306.013 104.032 296.746 103.116 296.296C80.4325 282.929 61.4492 265.296 48.0992 241.179C35.1992 217.963 27.6992 193.063 26.4658 166.479C26.1325 160.046 28.0158 157.779 34.4158 156.613C42.8177 155.005 51.4263 154.785 59.8992 155.963C95.4325 161.163 125.666 177.046 151.032 202.196C165.499 216.529 176.449 233.646 187.732 250.379C199.732 268.146 212.632 285.079 229.066 298.946C234.866 303.813 239.482 307.513 243.916 310.229C230.549 311.729 208.249 312.063 193.016 299.996ZM209.682 192.663C209.68 191.835 209.878 191.018 210.261 190.285C210.645 189.551 211.201 188.921 211.882 188.45C212.563 187.979 213.348 187.681 214.17 187.582C214.992 187.482 215.826 187.584 216.599 187.879C217.585 188.233 218.436 188.886 219.034 189.746C219.631 190.606 219.945 191.632 219.932 192.679C219.935 193.356 219.802 194.027 219.543 194.652C219.283 195.277 218.902 195.844 218.421 196.32C217.94 196.796 217.369 197.172 216.742 197.425C216.114 197.679 215.443 197.805 214.766 197.796C214.094 197.798 213.429 197.667 212.809 197.409C212.189 197.151 211.626 196.771 211.154 196.293C210.682 195.815 210.311 195.248 210.061 194.625C209.811 194.001 209.671 193.334 209.682 192.663ZM261.516 219.263C258.182 220.613 254.866 221.779 251.682 221.929C246.893 222.096 242.194 220.6 238.382 217.696C233.816 213.863 230.549 211.729 229.182 205.063C228.711 201.805 228.801 198.49 229.449 195.263C230.616 189.813 229.316 186.313 225.466 183.146C222.349 180.546 218.366 179.829 213.999 179.829C212.504 179.742 211.052 179.297 209.766 178.529C207.932 177.629 206.432 175.363 207.866 172.563C208.332 171.663 210.532 169.463 211.066 169.063C216.999 165.696 223.849 166.796 230.166 169.329C236.032 171.729 240.466 176.129 246.849 182.363C253.366 189.879 254.549 191.963 258.266 197.596C261.199 202.013 263.866 206.546 265.682 211.729C266.799 214.979 265.366 217.629 261.516 219.263Z" fill="#4D6BFE"/>
</g>
<defs>
<clipPath id="clip0_100_60155">
<rect width="400" height="400" fill="white"/>
</clipPath>
</defs>
</svg>
