<svg width="400" height="400" viewBox="0 0 400 400" fill="none" xmlns="http://www.w3.org/2000/svg">
<g clip-path="url(#clip0_271_3024)">
<path d="M0 75.5C0 40.9822 27.9822 13 62.5 13H100C106.904 13 112.5 18.5964 112.5 25.5V75.5C112.5 82.4037 106.904 88 100 88H12.5C5.59644 88 0 82.4037 0 75.5Z" fill="#191719"/>
<path d="M100 213H12.5C5.59644 213 0 218.596 0 225.5V275.5C0 282.404 5.59644 288 12.5 288H100C106.904 288 112.5 282.404 112.5 275.5V225.5C112.5 218.596 106.904 213 100 213Z" fill="#191719"/>
<path d="M0 325.5C0 318.596 5.59644 313 12.5 313H100C106.904 313 112.5 318.596 112.5 325.5V375.5C112.5 382.404 106.904 388 100 388H62.5C27.9822 388 0 360.017 0 325.5Z" fill="#191719"/>
<path d="M250 313H150C143.096 313 137.5 318.596 137.5 325.5V375.5C137.5 382.404 143.096 388 150 388H250C256.904 388 262.5 382.404 262.5 375.5V325.5C262.5 318.596 256.904 313 250 313Z" fill="#191719"/>
<path d="M287.5 325.5C287.5 318.596 293.096 313 300 313H387.5C394.404 313 400 318.596 400 325.5C400 360.017 372.017 388 337.5 388H300C293.096 388 287.5 382.404 287.5 375.5V325.5Z" fill="#191719"/>
<path d="M387.5 213H300C293.096 213 287.5 218.596 287.5 225.5V275.5C287.5 282.404 293.096 288 300 288H387.5C394.404 288 400 282.404 400 275.5V225.5C400 218.596 394.404 213 387.5 213Z" fill="#191719"/>
<path d="M387.5 113H300C293.096 113 287.5 118.596 287.5 125.5V175.5C287.5 182.404 293.096 188 300 188H387.5C394.404 188 400 182.404 400 175.5V125.5C400 118.596 394.404 113 387.5 113Z" fill="#191719"/>
<path d="M137.5 25.5C137.5 18.5964 143.096 13 150 13H337.5C372.017 13 400 40.9822 400 75.5C400 82.4037 394.404 88 387.5 88H150C143.096 88 137.5 82.4037 137.5 75.5V25.5Z" fill="#46A759"/>
<path d="M250 113H12.5C5.59644 113 0 118.596 0 125.5V175.5C0 182.404 5.59644 188 12.5 188H250C256.904 188 262.5 182.404 262.5 175.5V125.5C262.5 118.596 256.904 113 250 113Z" fill="#46A759"/>
<path d="M250 213H150C143.096 213 137.5 218.596 137.5 225.5V275.5C137.5 282.404 143.096 288 150 288H250C256.904 288 262.5 282.404 262.5 275.5V225.5C262.5 218.596 256.904 213 250 213Z" fill="#46A759"/>
</g>
<defs>
<clipPath id="clip0_271_3024">
<rect width="400" height="375" fill="white" transform="translate(0 13)"/>
</clipPath>
</defs>
</svg>
