<svg width="400" height="400" viewBox="0 0 400 400" fill="none" xmlns="http://www.w3.org/2000/svg">
<g clip-path="url(#clip0_101_60273)">
<path d="M345.877 160.777C343.781 145.56 335.399 132.349 320.273 120.412L311.526 114.49L305.695 123.328C298.223 134.718 294.488 150.572 295.672 165.788C296.219 171.073 297.95 180.731 303.326 189.023C297.95 192.03 287.289 196.039 273.075 195.765H1.54904L1.00234 198.954C-1.54891 214.171 -1.54891 261.825 28.975 298.362C52.2096 326.153 86.9249 340.276 132.301 340.276C230.706 340.276 303.417 294.444 337.585 210.982C350.98 211.255 379.863 211.073 394.715 182.371C395.08 181.733 395.991 180.002 398.542 174.535L400 171.528L391.708 165.879C382.597 159.957 361.914 157.679 345.877 160.777ZM218.679 59H177.403V96.9954H218.679V59ZM218.679 104.649H177.403V142.645H218.679V104.649ZM169.841 104.649H128.565V142.645H169.841V104.649ZM121.093 104.649H79.8178V142.645H121.093V104.649ZM72.2552 150.298H30.9796V188.294H72.2552V150.298ZM121.093 150.298H79.8178V188.294H121.093V150.298ZM169.841 150.298H128.565V188.294H169.841V150.298ZM218.679 150.298H177.403V188.294H218.679V150.298ZM267.517 150.298H226.242V188.294H267.517V150.298Z" fill="#1D63ED"/>
</g>
<defs>
<clipPath id="clip0_101_60273">
<rect width="400" height="281.549" fill="white" transform="translate(0 59)"/>
</clipPath>
</defs>
</svg>
