<svg width="400" height="448" viewBox="0 0 400 448" fill="none" xmlns="http://www.w3.org/2000/svg">
<path fill-rule="evenodd" clip-rule="evenodd" d="M186.573 200.609C182.693 202.867 180.279 207.059 180.279 211.558V429.173L15.6764 337.131V123.197L200.447 16.1479L364.587 97.477L186.573 200.609ZM383.689 97.2725C383.689 92.7656 381.282 88.5654 376.94 86.08L206.639 1.68322C202.751 -0.558448 197.923 -0.566318 194.043 1.69108L6.29409 110.463C2.41417 112.72 0 116.913 0 121.412V338.948C0 343.447 2.41417 347.639 6.41166 349.959L177.05 445.376C178.994 446.5 181.18 447.059 183.359 447.059C185.531 447.059 187.718 446.5 189.654 445.376C193.541 443.126 195.955 438.934 195.955 434.427V213.344L377.395 108.221C381.282 105.972 383.689 101.779 383.689 97.2725ZM384.073 337.626L235.147 428.717V347.151L312.8 297.04L313.333 293.524C313.474 292.604 313.529 292.604 313.529 288.365L313.772 191.061L384.316 150.184L384.073 337.626ZM393.698 133.894C389.802 131.621 384.974 131.629 381.086 133.894L305.988 177.398C303.637 178.68 298.103 181.693 298.103 187.907L297.852 287.979L226.282 334.165C222.01 336.714 219.47 340.749 219.47 345.012V433.79C219.47 438.234 221.861 442.284 225.866 444.605C227.959 445.808 230.287 446.422 232.607 446.422C234.888 446.422 237.169 445.84 239.23 444.644L393.471 350.305C397.351 348.048 399.749 343.856 399.749 339.38L400 144.835C400 140.336 397.586 136.144 393.698 133.894Z" fill="url(#paint0_linear_4642_6521)"/>
<path d="M186.573 200.609C182.693 202.867 180.279 207.059 180.279 211.558V429.173L15.6764 337.131V123.197L200.447 16.1479L364.587 97.477L186.573 200.609Z" fill="url(#paint1_linear_4642_6521)"/>
<path d="M384.073 337.626L235.147 428.717V347.151L312.8 297.04L313.333 293.524C313.474 292.604 313.529 292.604 313.529 288.365L313.772 191.061L384.316 150.184L384.073 337.626Z" fill="url(#paint2_linear_4642_6521)"/>
<defs>
<linearGradient id="paint0_linear_4642_6521" x1="360.093" y1="-7.17233e-06" x2="39.9065" y2="447.059" gradientUnits="userSpaceOnUse">
<stop stop-color="#FC9601"/>
<stop offset="1" stop-color="#CD5818"/>
</linearGradient>
<linearGradient id="paint1_linear_4642_6521" x1="360.093" y1="-7.17233e-06" x2="39.9065" y2="447.059" gradientUnits="userSpaceOnUse">
<stop stop-color="#FC9601"/>
<stop offset="1" stop-color="#CD5818"/>
</linearGradient>
<linearGradient id="paint2_linear_4642_6521" x1="360.093" y1="-7.17233e-06" x2="39.9065" y2="447.059" gradientUnits="userSpaceOnUse">
<stop stop-color="#FC9601"/>
<stop offset="1" stop-color="#CD5818"/>
</linearGradient>
</defs>
</svg>
