<svg width="400" height="400" viewBox="0 0 400 400" fill="none" xmlns="http://www.w3.org/2000/svg">
<g clip-path="url(#clip0_100_60171)">
<path d="M266.005 127.841L300.775 93.0712L303.093 78.4305C239.732 20.8165 139.011 27.3493 81.8942 92.0618C66.0286 110.035 54.2583 132.443 47.9817 155.582L60.4348 153.827L129.974 142.36L135.343 136.87C166.275 102.898 218.577 98.3274 254.293 127.232L266.005 127.841Z" fill="#EA4335"/>
<path d="M350.323 154.513C342.331 125.082 325.923 98.6243 303.109 78.3853L254.309 127.185C274.916 144.023 286.655 169.388 286.152 195.993V204.656C310.137 204.656 329.584 224.101 329.584 248.087C329.584 272.074 310.137 291.032 286.152 291.032H199.166L190.625 300.304V352.398L199.166 360.571H286.152C348.542 361.057 399.514 311.362 400 248.971C400.294 211.154 381.648 175.701 350.323 154.513Z" fill="#4285F4"/>
<path d="M112.274 360.618H199.138V291.077H112.274C106.085 291.076 100.091 289.746 94.4629 287.174L82.1395 290.956L47.1254 325.726L44.0754 337.56C63.7114 352.387 87.6692 360.724 112.274 360.618Z" fill="#34A853"/>
<path d="M112.297 135.027C49.9052 135.398 -0.369825 186.28 0.00204978 248.67C0.209862 283.511 16.4817 316.308 44.0989 337.547L94.4864 287.161C72.6255 277.284 62.9114 251.558 72.788 229.698C82.663 207.839 108.391 198.125 130.249 208C139.882 212.352 147.596 220.067 151.947 229.698L202.335 179.313C180.896 151.286 147.583 134.9 112.297 135.027Z" fill="#FBBC05"/>
</g>
<defs>
<clipPath id="clip0_100_60171">
<rect width="400" height="400" fill="white"/>
</clipPath>
</defs>
</svg>
