<svg width="400" height="400" viewBox="0 0 400 400" fill="none" xmlns="http://www.w3.org/2000/svg">
<g clip-path="url(#clip0_99_59522)">
<mask id="mask0_99_59522" style="mask-type:luminance" maskUnits="userSpaceOnUse" x="22" y="19" width="355" height="363">
<path d="M373.039 167.043H203.211V236.548H300.795C299.226 246.384 295.704 256.061 290.546 264.884C284.636 274.993 277.329 282.69 269.841 288.551C247.408 306.108 221.255 309.698 203.092 309.698C157.21 309.698 118.007 279.41 102.831 238.254C102.218 236.76 101.812 235.217 101.316 233.693C97.9627 223.218 96.1303 212.124 96.1303 200.594C96.1303 188.594 98.1146 177.107 101.733 166.258C116.003 123.471 156.091 91.5123 203.125 91.5123C212.586 91.5123 221.696 92.6625 230.336 94.9566C250.08 100.199 264.047 110.525 272.605 118.693L324.243 67.0421C292.832 37.6262 251.884 19.8018 203.04 19.8018C163.992 19.8009 127.941 32.2271 98.3982 53.2279C74.4402 70.2589 54.7912 93.0613 41.5305 119.544C29.1962 144.098 22.4424 171.31 22.4424 200.567C22.4424 229.825 29.2065 257.319 41.5409 281.647V281.811C54.569 307.638 73.6206 329.875 96.7758 346.828C117.004 361.638 153.276 381.363 203.04 381.363C231.657 381.363 257.02 376.093 279.389 366.217C295.525 359.093 309.821 349.801 322.765 337.858C339.868 322.078 353.263 302.559 362.406 280.103C371.548 257.647 376.439 232.252 376.439 204.72C376.439 191.898 375.178 178.877 373.039 167.042V167.043Z" fill="white"/>
</mask>
<g mask="url(#mask0_99_59522)">
<g filter="url(#filter0_f_99_59522)">
<path d="M19.8374 201.795C20.0251 230.592 28.059 260.303 40.2195 284.288V284.453C49.0061 301.872 61.0149 315.631 74.6926 329.263L157.303 298.477C141.673 290.368 139.289 285.399 128.085 276.332C116.636 264.541 108.103 251.004 102.788 235.131H102.574L102.788 234.966C99.2923 224.484 98.9474 213.358 98.8184 201.795H19.8374Z" fill="url(#paint0_radial_99_59522)"/>
</g>
<g filter="url(#filter1_f_99_59522)">
<path d="M203.212 18.4868C195.047 47.7852 198.169 76.2642 203.212 92.8346C212.641 92.8418 221.724 93.9897 230.336 96.2767C250.081 101.52 264.046 111.846 272.604 120.013L325.564 67.0429C294.19 37.6621 256.434 18.5331 203.212 18.4868Z" fill="url(#paint1_radial_99_59522)"/>
</g>
<g filter="url(#filter2_f_99_59522)">
<path d="M203.035 18.2554C162.984 18.2545 126.008 30.9997 95.7071 52.5397C84.4563 60.5375 74.1318 69.7762 64.9384 80.0499C62.53 103.128 82.9674 131.492 123.44 131.257C143.077 107.927 172.12 92.8322 204.444 92.8322C204.474 92.8322 204.502 92.8347 204.532 92.8348L203.212 18.2607C203.152 18.2606 203.094 18.2554 203.035 18.2554Z" fill="url(#paint2_radial_99_59522)"/>
</g>
<g filter="url(#filter3_f_99_59522)">
<path d="M335.224 210.145L299.476 235.229C297.907 245.065 294.383 254.742 289.224 263.565C283.315 273.674 276.009 281.371 268.52 287.232C246.134 304.752 220.05 308.36 201.892 308.375C183.124 341.024 179.833 357.377 203.212 383.728C232.141 383.706 257.788 378.372 280.41 368.384C296.762 361.164 311.25 351.747 324.368 339.644C341.7 323.653 355.277 303.872 364.542 281.114C373.807 258.356 378.762 232.622 378.762 204.721L335.224 210.145Z" fill="url(#paint3_radial_99_59522)"/>
</g>
<g filter="url(#filter4_f_99_59522)">
<path d="M200.572 164.403V239.189H372.563C374.076 228.947 379.079 215.693 379.079 204.721C379.079 191.899 377.819 176.238 375.68 164.403H200.572Z" fill="#3086FF"/>
</g>
<g filter="url(#filter5_f_99_59522)">
<path d="M65.7592 77.4102C55.1455 89.2711 46.0782 102.547 38.8889 116.904C26.5548 141.459 19.8013 171.311 19.8013 200.568C19.8013 200.98 19.8347 201.383 19.8374 201.795C25.2998 212.492 95.2906 210.444 98.8184 201.795C98.814 201.392 98.7695 200.998 98.7695 200.594C98.7695 188.594 100.754 179.749 104.372 168.9C108.836 155.518 115.824 143.195 124.76 132.578C126.786 129.936 132.19 124.258 133.766 120.852C134.367 119.554 132.676 118.826 132.581 118.369C132.475 117.858 130.209 118.269 129.701 117.889C128.088 116.681 124.895 116.05 122.956 115.489C118.812 114.291 111.944 111.647 108.129 108.908C96.07 100.247 77.2513 89.902 65.7592 77.4102Z" fill="url(#paint4_radial_99_59522)"/>
</g>
<g filter="url(#filter6_f_99_59522)">
<path d="M108.388 118.42C136.351 135.72 144.393 109.687 162.984 101.541L130.644 33.0425C118.747 38.1494 107.507 44.4944 97.0783 51.9079C81.5037 62.9794 67.7501 76.4899 56.3887 91.8649L108.388 118.42Z" fill="url(#paint5_radial_99_59522)"/>
</g>
<g filter="url(#filter7_f_99_59522)">
<path d="M119.769 293.184C82.2321 307.025 76.3556 307.521 72.9004 331.281C79.5032 337.862 86.5974 343.95 94.136 349.469C114.365 364.279 153.276 384.004 203.039 384.004C203.098 384.004 203.153 383.999 203.212 383.999V307.055C203.174 307.055 203.131 307.057 203.093 307.057C184.459 307.057 169.568 302.058 154.3 293.365C150.535 291.221 143.706 296.977 140.234 294.404C135.445 290.855 123.922 297.462 119.769 293.184Z" fill="url(#paint6_radial_99_59522)"/>
</g>
<g opacity="0.5" filter="url(#filter8_f_99_59522)">
<path d="M181.229 304.631V382.665C188.191 383.498 195.437 384.004 203.039 384.004C210.659 384.004 218.031 383.604 225.195 382.869V305.157C217.167 306.559 209.606 307.057 203.093 307.057C195.592 307.057 188.297 306.165 181.229 304.631Z" fill="url(#paint7_linear_99_59522)"/>
</g>
</g>
</g>
<defs>
<filter id="filter0_f_99_59522" x="19.2168" y="201.175" width="138.706" height="128.709" filterUnits="userSpaceOnUse" color-interpolation-filters="sRGB">
<feFlood flood-opacity="0" result="BackgroundImageFix"/>
<feBlend mode="normal" in="SourceGraphic" in2="BackgroundImageFix" result="shape"/>
<feGaussianBlur stdDeviation="0.310283" result="effect1_foregroundBlur_99_59522"/>
</filter>
<filter id="filter1_f_99_59522" x="197.571" y="17.8662" width="128.614" height="102.768" filterUnits="userSpaceOnUse" color-interpolation-filters="sRGB">
<feFlood flood-opacity="0" result="BackgroundImageFix"/>
<feBlend mode="normal" in="SourceGraphic" in2="BackgroundImageFix" result="shape"/>
<feGaussianBlur stdDeviation="0.310283" result="effect1_foregroundBlur_99_59522"/>
</filter>
<filter id="filter2_f_99_59522" x="64.127" y="17.6348" width="141.025" height="114.245" filterUnits="userSpaceOnUse" color-interpolation-filters="sRGB">
<feFlood flood-opacity="0" result="BackgroundImageFix"/>
<feBlend mode="normal" in="SourceGraphic" in2="BackgroundImageFix" result="shape"/>
<feGaussianBlur stdDeviation="0.310283" result="effect1_foregroundBlur_99_59522"/>
</filter>
<filter id="filter3_f_99_59522" x="186.118" y="204.101" width="193.265" height="180.248" filterUnits="userSpaceOnUse" color-interpolation-filters="sRGB">
<feFlood flood-opacity="0" result="BackgroundImageFix"/>
<feBlend mode="normal" in="SourceGraphic" in2="BackgroundImageFix" result="shape"/>
<feGaussianBlur stdDeviation="0.310283" result="effect1_foregroundBlur_99_59522"/>
</filter>
<filter id="filter4_f_99_59522" x="199.951" y="163.783" width="179.748" height="76.0268" filterUnits="userSpaceOnUse" color-interpolation-filters="sRGB">
<feFlood flood-opacity="0" result="BackgroundImageFix"/>
<feBlend mode="normal" in="SourceGraphic" in2="BackgroundImageFix" result="shape"/>
<feGaussianBlur stdDeviation="0.310283" result="effect1_foregroundBlur_99_59522"/>
</filter>
<filter id="filter5_f_99_59522" x="19.1807" y="76.7896" width="115.334" height="132.901" filterUnits="userSpaceOnUse" color-interpolation-filters="sRGB">
<feFlood flood-opacity="0" result="BackgroundImageFix"/>
<feBlend mode="normal" in="SourceGraphic" in2="BackgroundImageFix" result="shape"/>
<feGaussianBlur stdDeviation="0.310283" result="effect1_foregroundBlur_99_59522"/>
</filter>
<filter id="filter6_f_99_59522" x="52.0258" y="28.6796" width="115.321" height="99.9176" filterUnits="userSpaceOnUse" color-interpolation-filters="sRGB">
<feFlood flood-opacity="0" result="BackgroundImageFix"/>
<feBlend mode="normal" in="SourceGraphic" in2="BackgroundImageFix" result="shape"/>
<feGaussianBlur stdDeviation="2.18142" result="effect1_foregroundBlur_99_59522"/>
</filter>
<filter id="filter7_f_99_59522" x="72.2798" y="292.255" width="131.553" height="92.3691" filterUnits="userSpaceOnUse" color-interpolation-filters="sRGB">
<feFlood flood-opacity="0" result="BackgroundImageFix"/>
<feBlend mode="normal" in="SourceGraphic" in2="BackgroundImageFix" result="shape"/>
<feGaussianBlur stdDeviation="0.310283" result="effect1_foregroundBlur_99_59522"/>
</filter>
<filter id="filter8_f_99_59522" x="180.608" y="304.01" width="45.2074" height="80.6142" filterUnits="userSpaceOnUse" color-interpolation-filters="sRGB">
<feFlood flood-opacity="0" result="BackgroundImageFix"/>
<feBlend mode="normal" in="SourceGraphic" in2="BackgroundImageFix" result="shape"/>
<feGaussianBlur stdDeviation="0.310283" result="effect1_foregroundBlur_99_59522"/>
</filter>
<radialGradient id="paint0_radial_99_59522" cx="0" cy="0" r="1" gradientUnits="userSpaceOnUse" gradientTransform="translate(155.649 326.551) rotate(-92.3395) scale(180.206 264.701)">
<stop offset="0.141612" stop-color="#1ABD4D"/>
<stop offset="0.247515" stop-color="#6EC30D"/>
<stop offset="0.311547" stop-color="#8AC502"/>
<stop offset="0.366013" stop-color="#A2C600"/>
<stop offset="0.445673" stop-color="#C8C903"/>
<stop offset="0.540305" stop-color="#EBCB03"/>
<stop offset="0.615636" stop-color="#F7CD07"/>
<stop offset="0.699345" stop-color="#FDCD04"/>
<stop offset="0.771242" stop-color="#FDCE05"/>
<stop offset="0.860566" stop-color="#FFCE0A"/>
</radialGradient>
<radialGradient id="paint1_radial_99_59522" cx="0" cy="0" r="1" gradientTransform="matrix(124.926 -0.000306659 -0.000175589 161.336 320.609 116.181)" gradientUnits="userSpaceOnUse">
<stop offset="0.408458" stop-color="#FB4E5A"/>
<stop offset="1" stop-color="#FF4540"/>
</radialGradient>
<radialGradient id="paint2_radial_99_59522" cx="0" cy="0" r="1" gradientUnits="userSpaceOnUse" gradientTransform="translate(252.386 -5.09852) rotate(151.02) scale(200.084 271.512)">
<stop offset="0.231273" stop-color="#FF4541"/>
<stop offset="0.311547" stop-color="#FF4540"/>
<stop offset="0.457516" stop-color="#FF4640"/>
<stop offset="0.540305" stop-color="#FF473F"/>
<stop offset="0.699346" stop-color="#FF5138"/>
<stop offset="0.771242" stop-color="#FF5B33"/>
<stop offset="0.860566" stop-color="#FF6C29"/>
<stop offset="1" stop-color="#FF8C18"/>
</radialGradient>
<radialGradient id="paint3_radial_99_59522" cx="0" cy="0" r="1" gradientUnits="userSpaceOnUse" gradientTransform="translate(205.814 360.327) rotate(-127.454) scale(521.969 192.672)">
<stop offset="0.131546" stop-color="#0CBA65"/>
<stop offset="0.209784" stop-color="#0BB86D"/>
<stop offset="0.297297" stop-color="#09B479"/>
<stop offset="0.396257" stop-color="#08AD93"/>
<stop offset="0.477124" stop-color="#0AA6A9"/>
<stop offset="0.568425" stop-color="#0D9CC6"/>
<stop offset="0.667385" stop-color="#1893DD"/>
<stop offset="0.768727" stop-color="#258BF1"/>
<stop offset="0.858506" stop-color="#3086FF"/>
</radialGradient>
<radialGradient id="paint4_radial_99_59522" cx="0" cy="0" r="1" gradientUnits="userSpaceOnUse" gradientTransform="translate(187.7 52.4041) rotate(96.6178) scale(194.917 269.507)">
<stop offset="0.366013" stop-color="#FF4E3A"/>
<stop offset="0.457516" stop-color="#FF8A1B"/>
<stop offset="0.540305" stop-color="#FFA312"/>
<stop offset="0.615636" stop-color="#FFB60C"/>
<stop offset="0.771242" stop-color="#FFCD0A"/>
<stop offset="0.860566" stop-color="#FECF0A"/>
<stop offset="0.915033" stop-color="#FECF08"/>
<stop offset="1" stop-color="#FDCD01"/>
</radialGradient>
<radialGradient id="paint5_radial_99_59522" cx="0" cy="0" r="1" gradientUnits="userSpaceOnUse" gradientTransform="translate(156.111 50.3953) rotate(132.119) scale(96.8138 273.068)">
<stop offset="0.315904" stop-color="#FF4C3C"/>
<stop offset="0.603818" stop-color="#FF692C"/>
<stop offset="0.726837" stop-color="#FF7825"/>
<stop offset="0.884534" stop-color="#FF8D1B"/>
<stop offset="1" stop-color="#FF9F13"/>
</radialGradient>
<radialGradient id="paint6_radial_99_59522" cx="0" cy="0" r="1" gradientUnits="userSpaceOnUse" gradientTransform="translate(252.386 406.259) rotate(-151.02) scale(200.084 271.512)">
<stop offset="0.231273" stop-color="#0FBC5F"/>
<stop offset="0.311547" stop-color="#0FBC5F"/>
<stop offset="0.366013" stop-color="#0FBC5E"/>
<stop offset="0.457516" stop-color="#0FBC5D"/>
<stop offset="0.540305" stop-color="#12BC58"/>
<stop offset="0.699346" stop-color="#28BF3C"/>
<stop offset="0.771242" stop-color="#38C02B"/>
<stop offset="0.860566" stop-color="#52C218"/>
<stop offset="0.915033" stop-color="#67C30F"/>
<stop offset="1" stop-color="#86C504"/>
</radialGradient>
<linearGradient id="paint7_linear_99_59522" x1="181.229" y1="344.317" x2="225.195" y2="344.317" gradientUnits="userSpaceOnUse">
<stop stop-color="#0FBC5C"/>
<stop offset="1" stop-color="#0CBA65"/>
</linearGradient>
<clipPath id="clip0_99_59522">
<rect width="353.996" height="361.561" fill="white" transform="translate(22.4424 19.8018)"/>
</clipPath>
</defs>
</svg>
