<svg width="400" height="400" viewBox="0 0 400 400" fill="none" xmlns="http://www.w3.org/2000/svg">
<g clip-path="url(#clip0_290_8890)">
<path d="M133.168 143.816L117.241 171.402H50.0001H49.5521L99.3237 85.1953L133.168 143.816Z" fill="#808080"/>
<path d="M133.168 143.816L117.241 171.402H50.0001H49.5521L99.3237 85.1953L133.168 143.816Z" fill="#808080"/>
<path d="M267.816 143.816L283.743 171.402H350.984H351.432L301.661 85.1953L267.816 143.816Z" fill="#808080"/>
<path d="M267.816 143.816L283.743 171.402H350.984H351.432L301.661 85.1953L267.816 143.816Z" fill="#808080"/>
<path d="M150.575 286.894L101.149 201.287H0.25L100.125 374.276L150.575 286.894Z" fill="black"/>
<path d="M151.149 346.532L183.908 289.793H217.816L250.575 346.532H151.149Z" fill="#808080"/>
<path d="M249.425 286.894L298.851 201.287H399.75L299.875 374.276L249.425 286.894Z" fill="black"/>
<path d="M249.3 113.669L150.45 113.669L100 26.2871L299.75 26.2871L249.3 113.669Z" fill="black"/>
<path d="M266.728 201.286L233.733 258.554L167.64 258.613L134.542 201.405L167.537 144.137L233.63 144.077L266.728 201.286Z" fill="#808080"/>
</g>
<defs>
<clipPath id="clip0_290_8890">
<rect width="400" height="348.276" fill="white" transform="translate(0 26)"/>
</clipPath>
</defs>
</svg>
