<svg width="400" height="400" viewBox="0 0 400 400" fill="none" xmlns="http://www.w3.org/2000/svg">
<path d="M37.5 192.254C37.5 135.471 68.2833 83.0211 118.233 54.6211C142.85 40.6675 170.662 33.333 198.958 33.333C227.254 33.333 255.067 40.6675 279.683 54.6211C329.633 83.0211 360.417 135.471 360.417 192.254C360.417 280.021 288.133 351.171 198.967 351.171C109.8 351.171 37.5 280.004 37.5 192.254Z" fill="#FF9D0B"/>
<path d="M198.975 334.756C278.925 334.756 343.758 270.939 343.758 192.239C343.758 113.539 278.925 49.7393 198.975 49.7393C119.008 49.7393 54.1748 113.539 54.1748 192.239C54.1748 270.939 119.008 334.739 198.975 334.739V334.756Z" fill="#FFD21E"/>
<path d="M197.907 251.857C238.857 251.857 252.074 215.924 252.074 197.474C252.074 187.874 245.524 190.907 235.024 195.991C225.324 200.707 212.274 207.241 197.957 207.241C167.991 207.241 143.791 179.024 143.791 197.474C143.791 215.924 156.957 251.857 197.957 251.857H197.907Z" fill="#FF323D"/>
<path d="M246.004 153.478C251.338 155.278 253.421 166.028 258.788 163.228C266.238 159.344 270.571 151.428 269.771 143.161C269.356 139.097 267.741 135.249 265.133 132.106C262.524 128.963 259.039 126.667 255.121 125.511C251.189 124.321 246.994 124.309 243.055 125.476C239.115 126.643 235.604 128.938 232.954 132.078C227.588 138.478 226.671 147.411 230.621 154.744C233.171 159.461 241.254 151.794 246.038 153.428L246.004 153.478ZM147.888 153.478C142.554 155.278 140.421 166.028 135.088 163.228C131.467 161.358 128.489 158.448 126.534 154.872C124.58 151.296 123.74 147.218 124.121 143.161C124.921 134.911 130.704 127.944 138.754 125.511C142.687 124.321 146.882 124.309 150.821 125.476C154.76 126.643 158.271 128.938 160.921 132.078C166.288 138.478 167.204 147.411 163.254 154.744C160.721 159.461 152.588 151.794 147.838 153.428L147.888 153.478ZM166.554 242.478C168.775 238.056 171.882 234.137 175.681 230.966C179.48 227.795 183.89 225.439 188.638 224.044C189.804 223.711 191.038 225.044 192.288 226.894L195.488 231.994C196.638 233.661 197.804 234.911 198.971 234.911C200.204 234.911 201.471 233.678 202.688 232.044L206.104 227.011C207.438 225.178 208.721 223.878 210.004 224.261C218.954 227.061 226.438 233.194 230.838 241.361C246.371 229.294 252.088 209.611 252.088 197.478C252.088 189.011 246.988 190.378 238.588 194.311L228.321 199.244C219.654 203.244 209.188 207.244 197.921 207.244C186.654 207.244 176.221 203.244 167.538 199.244L157.721 194.528C149.054 190.394 143.754 188.828 143.754 197.478C143.754 209.194 149.088 227.994 163.538 240.144L166.538 242.478H166.554Z" fill="#3A3B45"/>
<path d="M296.87 172.761C298.635 172.776 300.386 172.444 302.023 171.782C303.66 171.12 305.15 170.141 306.408 168.903C307.667 167.665 308.669 166.191 309.357 164.565C310.045 162.939 310.406 161.193 310.42 159.428C310.42 152.078 304.353 146.094 296.87 146.094C295.105 146.081 293.356 146.416 291.721 147.078C290.086 147.741 288.598 148.72 287.341 149.958C286.085 151.196 285.084 152.67 284.397 154.294C283.71 155.919 283.349 157.663 283.336 159.428C283.336 166.794 289.403 172.761 296.87 172.761ZM103.136 172.761C104.9 172.774 106.65 172.44 108.285 171.777C109.919 171.114 111.408 170.135 112.664 168.897C113.921 167.659 114.922 166.186 115.609 164.561C116.296 162.936 116.656 161.192 116.67 159.428C116.67 152.078 110.603 146.094 103.136 146.094C101.371 146.079 99.6195 146.412 97.9827 147.074C96.3459 147.736 94.8557 148.714 93.5972 149.952C92.3388 151.19 91.3367 152.665 90.6485 154.291C89.9603 155.916 89.5993 157.662 89.5862 159.428C89.5862 166.794 95.6529 172.761 103.136 172.761ZM75.2529 217.878C68.5029 217.878 62.5029 220.578 58.3029 225.544C54.7202 229.884 52.7581 235.334 52.7529 240.961C50.1273 240.183 47.4076 239.768 44.6695 239.728C38.2195 239.728 32.3862 242.161 28.2529 246.544C24.5805 250.274 22.2583 255.122 21.6544 260.321C21.0506 265.521 22.1997 270.772 24.9195 275.244C21.2473 278.19 18.6325 282.249 17.4695 286.811C16.4695 290.511 15.4695 298.311 20.8029 306.244C18.8017 309.258 17.6082 312.735 17.3368 316.342C17.0654 319.949 17.7252 323.565 19.2529 326.844C23.2195 335.728 32.7529 342.811 50.7529 350.261L54.7529 351.861C67.5529 356.861 79.3029 360.061 79.3862 360.094C94.2195 364.144 109.52 366.344 124.92 366.661C149.336 366.661 166.803 359.278 176.836 344.761C192.336 322.394 190.87 301.844 172.27 282.044L169.753 279.478C158.22 268.078 150.503 251.311 148.92 247.611C145.67 236.694 137.086 224.561 122.886 224.561C115.22 224.678 108.07 228.444 103.72 234.644C99.5529 229.478 95.4695 225.428 91.8029 223.078C86.8895 219.813 81.1505 218.01 75.2529 217.878ZM324.753 217.878C331.503 217.878 337.536 220.578 341.703 225.544C345.303 229.911 347.253 235.344 347.253 240.961C349.886 240.178 352.62 239.778 355.37 239.728C361.836 239.728 367.67 242.161 371.786 246.544C375.459 250.274 377.781 255.122 378.385 260.321C378.988 265.521 377.839 270.772 375.12 275.244C378.786 278.211 381.403 282.278 382.536 286.811C383.536 290.511 384.536 298.311 379.203 306.244C383.27 312.411 383.853 320.178 380.753 326.844C376.786 335.728 367.253 342.811 349.27 350.261L345.286 351.861C332.453 356.861 320.703 360.061 320.62 360.094C305.786 364.144 290.486 366.344 275.086 366.661C250.67 366.661 233.203 359.278 223.17 344.761C207.67 322.394 209.136 301.844 227.736 282.044L230.253 279.478C241.836 268.078 249.536 251.311 251.12 247.611C254.37 236.694 262.92 224.561 277.12 224.561C284.786 224.678 291.936 228.444 296.286 234.644C300.453 229.478 304.536 225.428 308.253 223.078C312.32 220.378 316.97 218.661 321.82 218.078L324.753 217.878Z" fill="#FF9D0B"/>
<path d="M163.078 335.569C174.544 319.003 173.711 306.569 157.994 291.119C142.244 275.653 133.078 252.986 133.078 252.986C133.078 252.986 129.661 239.853 121.878 241.086C114.078 242.319 108.378 261.919 124.711 273.936C140.994 285.953 121.461 294.103 115.161 282.836C108.911 271.553 91.7442 242.569 82.8276 236.986C73.9609 231.453 67.7109 234.519 69.7942 246.003C71.8776 257.453 109.078 285.169 105.461 291.119C101.828 297.153 89.0776 284.119 89.0776 284.119C89.0776 284.119 49.2109 248.369 40.4942 257.703C31.8276 267.003 47.1276 274.803 68.8276 287.753C90.6276 300.719 92.3276 304.169 89.2442 309.086C86.1276 314.003 38.0776 274.086 33.5776 291.036C29.0776 307.886 82.6276 312.769 79.3276 324.469C75.9942 336.136 41.5776 302.403 34.5776 315.519C27.4942 328.686 83.1276 344.153 83.5776 344.269C101.494 348.869 147.128 358.586 163.078 335.569ZM236.944 335.569C225.494 319.003 226.278 306.569 242.028 291.119C257.744 275.653 266.911 252.986 266.911 252.986C266.911 252.986 270.328 239.853 278.161 241.086C285.911 242.319 291.611 261.919 275.328 273.936C258.994 285.953 278.578 294.103 284.828 282.836C291.111 271.553 308.278 242.569 317.161 236.986C326.028 231.453 332.328 234.519 330.194 246.003C328.111 257.453 290.944 285.169 294.578 291.119C298.161 297.153 310.911 284.119 310.911 284.119C310.911 284.119 350.828 248.369 359.494 257.703C368.161 267.003 352.911 274.803 331.161 287.753C309.361 300.719 307.694 304.169 310.744 309.086C313.861 314.003 361.911 274.086 366.411 291.036C370.911 307.886 317.411 312.769 320.694 324.469C324.028 336.136 358.411 302.403 365.444 315.519C372.494 328.686 316.911 344.153 316.444 344.269C298.494 348.869 252.861 358.586 236.944 335.569Z" fill="#FFD21E"/>
</svg>
