<svg width="400" height="400" viewBox="0 0 400 400" fill="none" xmlns="http://www.w3.org/2000/svg">
<g clip-path="url(#clip0_1352_26924)">
<mask id="mask0_1352_26924" style="mask-type:luminance" maskUnits="userSpaceOnUse" x="70" y="0" width="260" height="400">
<path d="M329.459 0H70V400H329.459V0Z" fill="white"/>
</mask>
<g mask="url(#mask0_1352_26924)">
<path d="M144.717 205.232V154.732C145.985 155.135 147.252 155.538 148.542 155.914C162.36 159.899 212.184 170.565 222.236 173.348C232.31 176.116 240.235 180.195 246.032 185.578C251.718 190.832 254.609 197.997 254.728 207.078C254.728 207.286 254.728 209.564 254.728 209.564V262.89H329.452V203.697C329.452 203.697 329.081 194.328 329.037 193.781C327.91 178.494 324.322 165.586 318.214 155.128C310.704 142.299 301.067 132.065 289.295 124.425C278.998 117.751 267.916 112.468 256.062 108.57H329.452V0H254.743V108.159C253.475 107.755 252.2 107.351 250.918 106.977C237.099 102.991 187.276 92.3243 177.223 89.5424C167.156 86.7748 159.224 82.6955 153.427 77.3117C147.615 71.9351 144.724 64.5622 144.724 55.1928V0H70V59.2072C70 59.2072 70.3707 68.5622 70.4151 69.1099C71.5419 84.3964 75.1299 97.3045 81.2383 107.762C88.7478 120.591 98.3849 130.825 110.157 138.465C120.335 145.059 131.284 150.292 142.99 154.176H70V205.225C70 205.225 70.1334 209.319 70.2298 211.359C74.8556 310.465 154.132 390.645 254.706 400V326.854C193.414 317.773 146.214 267.005 144.717 205.232Z" fill="url(#paint0_linear_1352_26924)"/>
</g>
</g>
<defs>
<linearGradient id="paint0_linear_1352_26924" x1="93.0474" y1="-15.6901" x2="337.613" y2="343.563" gradientUnits="userSpaceOnUse">
<stop stop-color="#BC3A54"/>
<stop offset="0.13" stop-color="#B9395C"/>
<stop offset="0.33" stop-color="#B23875"/>
<stop offset="0.59" stop-color="#A7369D"/>
<stop offset="0.89" stop-color="#9834D3"/>
<stop offset="1" stop-color="#9233E9"/>
</linearGradient>
<clipPath id="clip0_1352_26924">
<rect width="259.459" height="400" fill="white" transform="translate(70)"/>
</clipPath>
</defs>
</svg>
