<svg width="400" height="400" viewBox="0 0 400 400" fill="none" xmlns="http://www.w3.org/2000/svg">
<g clip-path="url(#clip0_100_60144)">
<path d="M90.2068 229.584C98.6635 203.731 109.825 178.843 123.507 155.334C176.34 63.8005 253.423 9.38388 295.673 33.7672C200.64 -21.0995 76.6401 15.7339 18.7068 116.067C11.7925 128.038 6.00651 140.625 1.42344 153.667C-2.89322 165.984 2.95678 179.234 14.2568 185.767L90.2068 229.601V229.584Z" fill="url(#paint0_radial_100_60144)"/>
<path d="M309.813 169.401C301.351 195.254 290.184 220.142 276.496 243.651C223.663 335.184 146.58 389.618 104.33 365.218C199.38 420.101 323.38 383.251 381.313 282.918C388.225 270.952 394.011 258.37 398.596 245.334C402.913 233.034 397.063 219.768 385.763 213.251L309.813 169.418V169.401Z" fill="url(#paint1_radial_100_60144)"/>
<path d="M276.502 243.651C329.336 152.118 337.936 58.151 295.669 33.751C253.452 9.36763 176.369 63.8176 123.502 155.318C158.069 95.4843 220.319 66.7343 262.569 91.1176C304.802 115.518 311.036 183.784 276.486 243.634L276.502 243.651Z" fill="url(#paint2_linear_100_60144)"/>
<path d="M123.51 155.338C70.6763 246.872 62.0763 340.838 104.343 365.222C146.576 389.622 223.66 335.188 276.51 243.655C241.943 303.505 179.693 332.255 137.443 307.855C95.2097 283.472 88.9763 215.188 123.526 155.355L123.51 155.338Z" fill="url(#paint3_linear_100_60144)"/>
</g>
<defs>
<radialGradient id="paint0_radial_100_60144" cx="0" cy="0" r="1" gradientUnits="userSpaceOnUse" gradientTransform="translate(86.2234 227.284) rotate(-59.132) scale(242.912 332.88)">
<stop offset="0.095" stop-color="#FFF959"/>
<stop offset="0.326" stop-color="#0DF35E"/>
<stop offset="0.64" stop-color="#0BF2F9"/>
<stop offset="1" stop-color="#04A6F0"/>
</radialGradient>
<radialGradient id="paint1_radial_100_60144" cx="0" cy="0" r="1" gradientUnits="userSpaceOnUse" gradientTransform="translate(313.784 171.7) rotate(120.868) scale(242.912 332.88)">
<stop offset="0.095" stop-color="#FFF959"/>
<stop offset="0.326" stop-color="#0DF35E"/>
<stop offset="0.64" stop-color="#0BF2F9"/>
<stop offset="1" stop-color="#04A6F0"/>
</radialGradient>
<linearGradient id="paint2_linear_100_60144" x1="259.636" y1="29.951" x2="301.036" y2="164.334" gradientUnits="userSpaceOnUse">
<stop stop-color="#003EFF"/>
<stop offset="1" stop-color="#0BFFE7"/>
</linearGradient>
<linearGradient id="paint3_linear_100_60144" x1="140.376" y1="369.038" x2="98.9763" y2="234.655" gradientUnits="userSpaceOnUse">
<stop stop-color="#003EFF"/>
<stop offset="1" stop-color="#0BFFE7"/>
</linearGradient>
<clipPath id="clip0_100_60144">
<rect width="400" height="400" fill="white"/>
</clipPath>
</defs>
</svg>
