<svg width="400" height="400" viewBox="0 0 400 400" fill="none" xmlns="http://www.w3.org/2000/svg">
<g clip-path="url(#clip0_2231_17116)">
<path d="M173.29 19.6782C184.396 19.6783 193.473 25.1877 200.37 32.1177C207.196 38.9769 212.866 48.1452 217.666 58.1284C227.293 78.1548 234.91 104.665 240.816 131.875C252.648 186.388 258.384 247.453 258.384 274.153C258.384 332.408 213.459 380.97 156.435 380.97C99.4117 380.97 54.4869 332.407 54.4869 274.153C54.487 259.584 58.3493 236.802 64.4069 211.714C70.5501 186.272 79.2404 157.294 89.4899 129.897C99.6907 102.63 111.67 76.2997 124.553 56.519C130.98 46.6519 138.003 37.8316 145.606 31.3335C153.114 24.9172 162.485 19.6782 173.29 19.6782Z" stroke="black" stroke-width="28.6172"/>
<path d="M316.972 106.462C325.354 113.135 328.998 122.674 330.146 131.991C331.28 141.194 330.173 151.379 327.945 161.592C323.477 182.071 313.719 206.055 302.306 229.465C279.441 276.367 248.195 324.434 232.612 344.005C198.253 387.16 135.904 395.622 93.2175 361.636C50.5309 327.65 44.8077 264.99 79.1669 221.835C87.7351 211.073 103.967 196.666 123.086 181.952C142.502 167.01 165.882 151.004 189.51 137.084C213.019 123.233 237.355 111.101 258.587 104.299C269.179 100.906 279.643 98.6271 289.204 98.408C298.658 98.1914 308.818 99.9698 316.972 106.462Z" stroke="black" stroke-width="28.6172"/>
<path d="M359.808 291.352C359.865 301.443 355.3 309.869 349.328 316.409C343.454 322.839 335.62 328.158 327.189 332.628C310.303 341.58 288.058 348.653 265.408 354.136C220.033 365.121 169.139 370.623 146.688 370.75C95.9949 371.035 55.3932 329.033 55.1051 277.855C54.8171 226.678 94.9436 184.221 145.637 183.935C158.186 183.865 177.459 187.342 198.338 192.701C219.607 198.16 243.822 205.91 266.731 215.084C289.513 224.207 311.639 234.99 328.347 246.688C336.689 252.528 344.212 258.962 349.785 265.974C355.315 272.932 359.753 281.525 359.808 291.352Z" stroke="black" stroke-width="28.6172"/>
</g>
<defs>
<clipPath id="clip0_2231_17116">
<rect width="400" height="400" fill="white"/>
</clipPath>
</defs>
</svg>
