<svg width="400" height="400" viewBox="0 0 400 400" fill="none" xmlns="http://www.w3.org/2000/svg">
<g clip-path="url(#clip0_100_60215)">
<path d="M200 400C310.457 400 400 310.457 400 200C400 89.5432 310.457 0 200 0C89.5433 0 0 89.5432 0 200C0 310.457 89.5433 400 200 400Z" fill="url(#paint0_linear_100_60215)"/>
<path d="M156.982 25.0132L205.825 131.698C207.156 134.74 209.253 137.386 211.914 139.375C214.617 141.35 217.745 142.664 221.047 143.213C224.338 143.716 227.702 143.399 230.843 142.29C233.982 141.182 236.801 139.317 239.047 136.86L315.421 52.0148L249.238 166.774C248.335 168.392 247.86 170.214 247.86 172.068C247.86 173.922 248.335 175.745 249.238 177.363C250.052 179.019 251.285 180.433 252.813 181.466C254.301 182.532 256.027 183.213 257.844 183.451L380.411 199.732L262.872 215.617C261.562 215.735 260.319 216.242 259.299 217.073C258.243 217.934 257.461 219.082 257.049 220.381C256.652 221.631 256.652 222.97 257.049 224.22C257.313 225.523 257.957 226.721 258.902 227.661L306.154 277.825L254.799 250.031C252.996 248.991 250.915 248.53 248.841 248.706C246.767 248.775 244.751 249.417 243.019 250.559C241.336 251.81 239.974 253.444 239.047 255.325C238.203 257.236 237.883 259.338 238.122 261.414L252.416 374.848L212.708 280.341C210.726 275.511 207.534 271.273 203.442 268.031C199.388 264.718 194.562 262.487 189.411 261.545C184.271 260.632 178.986 261.002 174.022 262.616C169.058 264.233 164.571 267.047 160.953 270.811L93.0515 342.685L157.115 238.647C158.819 236.043 159.781 233.022 159.895 229.911C160.11 226.805 159.515 223.696 158.169 220.89C156.823 218.082 154.772 215.673 152.217 213.895C149.731 212.049 146.816 210.864 143.746 210.454L19.8552 194.173L144.673 183.187C146.004 183.088 147.286 182.63 148.379 181.863C149.424 181.019 150.244 179.927 150.762 178.686C151.148 177.436 151.148 176.098 150.762 174.848C150.461 173.544 149.873 172.323 149.04 171.274L101.787 119.653L158.57 147.714C159.73 148.25 161.005 148.478 162.276 148.376C163.558 148.326 164.796 147.912 165.851 147.184C166.885 146.439 167.708 145.435 168.234 144.272C168.781 143.118 169.009 141.838 168.895 140.566L156.982 25.0132Z" fill="white"/>
</g>
<defs>
<linearGradient id="paint0_linear_100_60215" x1="23.5886" y1="305.209" x2="466.863" y2="-12.2714" gradientUnits="userSpaceOnUse">
<stop stop-color="#2EB5D1"/>
<stop offset="1" stop-color="#008BAA"/>
</linearGradient>
<clipPath id="clip0_100_60215">
<rect width="400" height="400" fill="white"/>
</clipPath>
</defs>
</svg>
