<svg width="400" height="400" viewBox="0 0 400 400" fill="none" xmlns="http://www.w3.org/2000/svg">
<path fill-rule="evenodd" clip-rule="evenodd" d="M58.3334 133.333C58.3367 117.532 62.4246 101.999 70.2004 88.2436C77.9762 74.4878 89.1758 62.9756 102.712 54.8242C116.249 46.6728 131.663 42.159 147.458 41.7208C163.254 41.2826 178.894 44.935 192.862 52.3234C206.829 59.7119 218.65 70.5855 227.176 83.8891C235.703 97.1926 240.645 112.474 241.525 128.251C242.404 144.028 239.19 159.765 232.195 173.933C225.199 188.102 214.66 200.222 201.6 209.116C229.725 219.432 254.12 237.928 271.644 262.225C289.169 286.521 299.021 315.507 299.933 345.45C299.983 347.091 299.708 348.726 299.125 350.262C298.543 351.797 297.663 353.203 296.537 354.398C294.264 356.813 291.124 358.225 287.808 358.325C287.549 358.333 287.291 358.332 287.033 358.324C283.995 358.227 281.086 357.025 278.86 354.929C276.445 352.655 275.033 349.515 274.933 346.2C273.941 313.724 260.342 282.911 237.02 260.29C213.697 237.669 182.483 225.018 149.992 225.018C117.501 225.018 86.2867 237.669 62.9639 260.29C39.6411 282.911 26.0426 313.724 25.0501 346.2C24.8832 349.464 23.4447 352.532 21.0428 354.749C18.8152 356.804 15.9232 357.974 12.9094 358.057C12.6735 358.063 12.4368 358.063 12.1997 358.056C8.93291 357.96 5.83363 356.589 3.56579 354.236C1.29794 351.882 0.0419079 348.734 0.0667684 345.466C0.975957 315.52 10.8269 286.532 28.3515 262.232C45.8762 237.932 70.2725 219.433 98.4001 209.116C86.0452 200.712 75.9347 189.413 68.9508 176.203C61.9668 162.993 58.3217 148.275 58.3334 133.333ZM150 66.6664C132.319 66.6664 115.362 73.6902 102.86 86.1927C90.3572 98.6951 83.3334 115.652 83.3334 133.333C83.3334 151.014 90.3572 167.971 102.86 180.474C115.362 192.976 132.319 200 150 200C167.681 200 184.638 192.976 197.141 180.474C209.643 167.971 216.667 151.014 216.667 133.333C216.667 115.652 209.643 98.6951 197.141 86.1927C184.638 73.6902 167.681 66.6664 150 66.6664Z" fill="#1E74FF"/>
<path d="M150 66.6664C132.319 66.6664 115.362 73.6902 102.86 86.1927C90.3572 98.6951 83.3334 115.652 83.3334 133.333C83.3334 151.014 90.3572 167.971 102.86 180.474C115.362 192.976 132.319 200 150 200C167.681 200 184.638 192.976 197.141 180.474C209.643 167.971 216.667 151.014 216.667 133.333C216.667 115.652 209.643 98.6951 197.141 86.1927C184.638 73.6902 167.681 66.6664 150 66.6664Z" fill="#1E74FF"/>
<path d="M287.033 358.324C283.995 358.227 281.086 357.025 278.86 354.929C276.445 352.655 275.033 349.515 274.933 346.2C273.941 313.724 260.342 282.911 237.02 260.29C213.697 237.669 182.483 225.018 149.992 225.018C117.501 225.018 86.2867 237.669 62.9639 260.29C39.6411 282.911 26.0426 313.724 25.0501 346.2C24.8832 349.464 23.4447 352.532 21.0428 354.749C18.8152 356.804 15.9232 357.974 12.9094 358.057L287.033 358.324Z" fill="#1E74FF"/>
<path d="M288.167 133.334C285.7 133.334 283.3 133.5 280.933 133.834C279.281 134.13 277.586 134.09 275.949 133.716C274.313 133.343 272.768 132.643 271.408 131.66C270.047 130.677 268.899 129.429 268.031 127.993C267.163 126.556 266.593 124.959 266.356 123.297C266.118 121.635 266.218 119.943 266.649 118.32C267.08 116.698 267.833 115.179 268.864 113.854C269.895 112.529 271.182 111.425 272.648 110.609C274.115 109.792 275.731 109.279 277.4 109.1C293.976 106.704 310.879 109.887 325.448 118.149C340.017 126.411 351.425 139.283 357.877 154.739C364.328 170.195 365.458 187.358 361.087 203.526C356.716 219.694 347.094 233.95 333.733 244.05C353.373 252.844 370.048 267.134 381.748 285.194C393.447 303.255 399.67 324.315 399.666 345.834C399.666 349.149 398.35 352.328 396.005 354.672C393.661 357.017 390.482 358.334 387.166 358.334C383.851 358.334 380.672 357.017 378.328 354.672C375.983 352.328 374.666 349.149 374.666 345.834C374.665 327.236 368.672 309.134 357.577 294.208C346.482 279.283 330.875 268.328 313.067 262.967L304.167 260.3V232.367L311 228.884C321.129 223.753 329.234 215.358 334.005 205.054C338.776 194.751 339.936 183.14 337.297 172.096C334.658 161.053 328.374 151.221 319.46 144.187C310.546 137.154 299.521 133.331 288.167 133.334Z" fill="#1E74FF"/>
</svg>
