<svg width="400" height="400" viewBox="0 0 400 400" fill="none" xmlns="http://www.w3.org/2000/svg">
<g clip-path="url(#clip0_784_7474)">
<path d="M0 263.21C27.7895 256.037 63.0625 250.064 101.952 253.945C136.516 257.395 169.411 267.315 199.436 275.752C230.306 284.424 259.246 291.908 290.249 293.41C331.734 295.42 373.505 286.697 400.114 279.218V337.423C369.835 344.84 329.068 351.658 287.525 349.645C249.546 347.805 215.179 338.654 184.209 329.953C152.394 321.014 124.914 312.819 96.3595 309.969C58.365 306.177 26.7546 313.74 0 321.807V263.21Z" fill="black"/>
<path d="M0 163.148C28.489 155.425 65.6444 148.47 106.862 152.585C141.426 156.035 174.322 165.954 204.347 174.389C235.219 183.062 264.158 190.546 295.16 192.049C334.175 193.939 373.444 186.336 400.114 179.204V237.236C370.414 244.179 331.772 250.19 292.436 248.284C254.457 246.444 220.089 237.294 189.119 228.592C157.304 219.654 129.824 211.457 101.27 208.607C60.925 204.58 27.778 213.355 0 221.942V163.148Z" fill="black"/>
<path d="M0 63.1476C29.0656 54.9152 68.1435 46.8685 111.773 51.2236C146.337 54.6739 179.234 64.5934 209.259 73.0291C240.129 81.7024 269.069 89.1859 300.071 90.688C336.755 92.4655 373.664 85.8505 400.114 79.124V136.996C371.131 143.446 334.55 148.726 297.346 146.924C259.368 145.083 225 135.933 194.031 127.232C162.216 118.293 134.736 110.096 106.182 107.246C63.4314 102.979 28.7626 113.086 0 122.114V63.1476Z" fill="black"/>
</g>
<defs>
<clipPath id="clip0_784_7474">
<rect width="400" height="300" fill="white" transform="translate(0 50)"/>
</clipPath>
</defs>
</svg>
