<svg width="400" height="400" viewBox="0 0 400 400" fill="none" xmlns="http://www.w3.org/2000/svg">
<g clip-path="url(#clip0_100_60177)">
<path d="M114.946 66.6665H114.546L114.03 110.25H114.396C142.98 110.25 165.163 132.867 213.396 214.35L216.313 219.3L216.513 219.633L243.513 179L243.313 178.683C237.413 169.023 231.312 159.488 225.013 150.083C218.812 140.802 212.28 131.746 205.43 122.933C173.546 82.1998 146.88 66.6665 114.946 66.6665Z" fill="url(#paint0_linear_100_60177)"/>
<path d="M114.546 66.6665C82.4961 66.8332 54.1128 87.6332 33.6628 119.5C33.607 119.594 33.5514 119.689 33.4961 119.783L71.0628 140.3L71.2461 140.017C83.2128 121.967 98.0794 110.45 114.046 110.267H114.396L114.929 66.6665H114.546Z" fill="url(#paint1_linear_100_60177)"/>
<path d="M33.6589 119.531L33.4755 119.815C20.0089 140.815 9.97552 166.615 4.57552 194.431L4.49219 194.798L46.7255 204.798L46.7922 204.431C51.2922 179.981 59.8922 157.298 71.0589 140.348L71.2422 140.065L33.6589 119.531Z" fill="url(#paint2_linear_100_60177)"/>
<path d="M46.7833 204.401L4.56667 194.401L4.48333 194.768C1.53333 210.068 0.0333333 225.618 0 241.201V241.584L43.3 245.468V245.084C43.1424 231.447 44.3147 217.827 46.8 204.418L46.7833 204.401Z" fill="url(#paint3_linear_100_60177)"/>
<path d="M44.6187 258.963C43.8422 254.485 43.4021 249.956 43.302 245.413V245.046L0.00205175 241.146V241.546C-0.0465414 250.78 0.768113 259.997 2.43538 269.079L44.6854 259.329C44.6628 259.207 44.6406 259.085 44.6187 258.963Z" fill="url(#paint4_linear_100_60177)"/>
<path d="M54.5098 281.468C49.7765 276.301 46.4431 268.868 44.6931 259.334L44.6265 258.984L2.37646 268.734L2.44313 269.084C5.64313 285.918 11.9098 299.918 20.8765 310.534L21.1098 310.818L54.7431 281.734C54.6593 281.646 54.5927 281.557 54.5098 281.468Z" fill="url(#paint5_linear_100_60177)"/>
<path d="M179.666 160.873C154.199 200.039 138.766 224.623 138.766 224.623C104.849 277.956 93.1157 289.906 74.2491 289.906C70.5387 290.003 66.8514 289.296 63.4396 287.835C60.0279 286.373 56.9723 284.192 54.4824 281.439L20.8657 310.506L21.0991 310.789C33.4991 325.273 50.9657 333.306 72.5991 333.306C105.316 333.306 128.832 317.839 170.666 244.473L200.099 192.306C193.569 181.644 186.767 171.163 179.666 160.873Z" fill="#0082FB"/>
<path d="M225.036 99.105L224.769 99.3717C218.103 106.538 211.669 114.505 205.436 122.972C211.736 131.022 218.236 140.038 225.019 150.138C233.019 137.755 240.486 127.722 247.803 120.022L248.069 119.755L225.036 99.105Z" fill="url(#paint6_linear_100_60177)"/>
<path d="M348.639 95.2165C330.889 77.2165 309.722 66.6665 287.089 66.6665C263.222 66.6665 243.139 79.7832 225.039 99.0665L224.772 99.3332L247.805 120L248.072 119.717C259.989 107.267 271.539 101.05 284.339 101.05C298.105 101.05 311.005 107.55 322.172 118.967L322.422 119.233L348.905 95.4832L348.639 95.2165Z" fill="#0082FB"/>
<path d="M399.968 235.448C398.968 177.664 378.801 126.014 348.901 95.5142L348.635 95.2476L322.168 118.981L322.418 119.248C344.918 142.448 360.368 185.581 361.768 235.431V235.814H399.968V235.448Z" fill="url(#paint7_linear_100_60177)"/>
<path d="M399.983 235.865V235.482H361.783V235.849C361.85 238.182 361.883 240.549 361.883 242.915C361.883 256.499 359.866 267.482 355.75 275.415L355.566 275.782L384.033 305.482L384.25 305.149C394.583 289.149 400.016 266.932 400.016 239.982C400.016 238.599 400.016 237.232 399.983 235.865Z" fill="url(#paint8_linear_100_60177)"/>
<path d="M355.734 275.326L355.55 275.659C351.984 282.359 346.9 286.826 340.267 288.776L353.234 329.809C355.733 328.964 358.172 327.951 360.534 326.776C369.763 322.11 377.611 315.112 383.3 306.476L384.034 305.392L384.234 305.059L355.734 275.326Z" fill="url(#paint9_linear_100_60177)"/>
<path d="M332.005 289.898C327.638 289.898 323.805 289.248 320.038 287.565L306.738 329.598C314.222 332.148 322.188 333.298 331.072 333.298C339.272 333.298 346.788 332.082 353.605 329.715L340.605 288.682C337.822 289.515 334.938 289.932 332.005 289.898Z" fill="url(#paint10_linear_100_60177)"/>
<path d="M305.378 275.544L305.144 275.26L274.544 307.16L274.811 307.444C285.428 318.81 295.578 325.86 307.094 329.727L320.378 287.727C315.528 285.644 310.828 281.844 305.378 275.544Z" fill="url(#paint11_linear_100_60177)"/>
<path d="M305.142 275.246C295.975 264.546 284.609 246.713 266.759 217.913L243.492 178.979L243.309 178.646L216.309 219.279L216.509 219.613L232.992 247.413C248.975 274.246 261.992 293.646 274.542 307.163L274.809 307.429L305.375 275.529C305.297 275.435 305.219 275.341 305.142 275.246Z" fill="url(#paint12_linear_100_60177)"/>
</g>
<defs>
<linearGradient id="paint0_linear_100_60177" x1="9941.43" y1="13711.1" x2="1912.03" y2="3155.89" gradientUnits="userSpaceOnUse">
<stop offset="0.0006" stop-color="#0867DF"/>
<stop offset="0.4539" stop-color="#0668E1"/>
<stop offset="0.8591" stop-color="#0064E0"/>
</linearGradient>
<linearGradient id="paint1_linear_100_60177" x1="1798.16" y1="5653.52" x2="7527.3" y2="1293.06" gradientUnits="userSpaceOnUse">
<stop offset="0.1323" stop-color="#0064DF"/>
<stop offset="0.9988" stop-color="#0064E0"/>
</linearGradient>
<linearGradient id="paint2_linear_100_60177" x1="2558.55" y1="7719.09" x2="4894.22" y2="1821.7" gradientUnits="userSpaceOnUse">
<stop offset="0.0147" stop-color="#0072EC"/>
<stop offset="0.6881" stop-color="#0064DF"/>
</linearGradient>
<linearGradient id="paint3_linear_100_60177" x1="2201.1" y1="4800.1" x2="2486.03" y2="1001.85" gradientUnits="userSpaceOnUse">
<stop offset="0.0731" stop-color="#007CF6"/>
<stop offset="0.9943" stop-color="#0072EC"/>
</linearGradient>
<linearGradient id="paint4_linear_100_60177" x1="2330.57" y1="1869.69" x2="2248.68" y2="1258.44" gradientUnits="userSpaceOnUse">
<stop offset="0.0731" stop-color="#007FF9"/>
<stop offset="1" stop-color="#007CF6"/>
</linearGradient>
<linearGradient id="paint5_linear_100_60177" x1="1976.02" y1="907.004" x2="3225.97" y2="3566.74" gradientUnits="userSpaceOnUse">
<stop offset="0.0731" stop-color="#007FF9"/>
<stop offset="1" stop-color="#0082FB"/>
</linearGradient>
<linearGradient id="paint6_linear_100_60177" x1="1689.42" y1="3614.34" x2="3196.78" y2="1523.44" gradientUnits="userSpaceOnUse">
<stop offset="0.2799" stop-color="#007FF8"/>
<stop offset="0.9141" stop-color="#0082FB"/>
</linearGradient>
<linearGradient id="paint7_linear_100_60177" x1="3726.85" y1="971.681" x2="7075.03" y2="13327.5" gradientUnits="userSpaceOnUse">
<stop stop-color="#0082FB"/>
<stop offset="0.9995" stop-color="#0081FA"/>
</linearGradient>
<linearGradient id="paint8_linear_100_60177" x1="3025.01" y1="561.752" x2="1060.7" y2="4544.34" gradientUnits="userSpaceOnUse">
<stop offset="0.0619" stop-color="#0081FA"/>
<stop offset="1" stop-color="#0080F9"/>
</linearGradient>
<linearGradient id="paint9_linear_100_60177" x1="1671.67" y1="3507.28" x2="3256.61" y2="2424.4" gradientUnits="userSpaceOnUse">
<stop stop-color="#027AF3"/>
<stop offset="1" stop-color="#0080F9"/>
</linearGradient>
<linearGradient id="paint10_linear_100_60177" x1="1264.36" y1="2574.28" x2="4155.05" y2="2574.28" gradientUnits="userSpaceOnUse">
<stop stop-color="#0377EF"/>
<stop offset="0.9994" stop-color="#0279F1"/>
</linearGradient>
<linearGradient id="paint11_linear_100_60177" x1="2121.77" y1="2197.82" x2="3749.29" y2="3158.61" gradientUnits="userSpaceOnUse">
<stop offset="0.0019" stop-color="#0471E9"/>
<stop offset="1" stop-color="#0377EF"/>
</linearGradient>
<linearGradient id="paint12_linear_100_60177" x1="3089.06" y1="2718.12" x2="8405.31" y2="9422.7" gradientUnits="userSpaceOnUse">
<stop offset="0.2765" stop-color="#0867DF"/>
<stop offset="1" stop-color="#0471E9"/>
</linearGradient>
<clipPath id="clip0_100_60177">
<rect width="400" height="400" fill="white"/>
</clipPath>
</defs>
</svg>
