<svg width="400" height="400" viewBox="0 0 400 400" fill="none" xmlns="http://www.w3.org/2000/svg">
<path d="M57.1289 56.6406H114.279V113.774H57.1289V56.6406ZM285.696 56.6406H342.862V113.774H285.696V56.6406Z" fill="#FFD700"/>
<path d="M57.1289 113.802H171.412V170.952H57.1456L57.1289 113.802ZM228.562 113.802H342.846V170.952H228.562V113.802Z" fill="#FFAF00"/>
<path d="M57.1289 170.963H342.862V228.097H57.1289V170.963Z" fill="#FF8205"/>
<path d="M57.1289 228.125H114.279V285.258H57.1289V228.125ZM171.429 228.125H228.579V285.258H171.429V228.125ZM285.696 228.125H342.862V285.258H285.696V228.125Z" fill="#FA500F"/>
<path d="M0 285.221H171.433V342.371H0V285.221ZM228.567 285.221H400V342.371H228.567V285.221Z" fill="#E10500"/>
</svg>
