<svg width="400" height="400" viewBox="0 0 400 400" fill="none" xmlns="http://www.w3.org/2000/svg">
<g clip-path="url(#clip0_100_60202)">
<path d="M120.509 159.571C142.535 159.571 160.39 177.426 160.39 199.451C160.39 210.456 155.932 220.417 148.728 227.632L187.731 282.121C191.678 280.814 195.885 280.081 200.271 280.081C204.696 280.081 208.94 280.831 212.918 282.162L236.403 247.61C239.432 243.159 245.5 242.003 249.951 245.029C254.407 248.057 255.565 254.124 252.535 258.578L229.334 292.712C236.025 299.843 240.153 309.41 240.153 319.96C240.153 341.987 222.296 359.842 200.271 359.842C178.245 359.842 160.39 341.987 160.39 319.96C160.39 309.376 164.543 299.781 171.273 292.64L131.912 237.656C128.298 238.735 124.475 239.332 120.509 239.332C115.851 239.332 111.398 238.492 107.243 237.024L70.6073 294.54C76.323 301.442 79.762 310.298 79.762 319.96C79.762 341.987 61.9058 359.842 39.8808 359.842C17.8558 359.842 -0.000488281 341.987 -0.000488281 319.96C-0.000488281 297.935 17.8558 280.081 39.8808 280.081C45.1698 280.081 50.2073 281.132 54.8261 283.003L91.0011 226.212C84.5761 219.134 80.6292 209.765 80.6292 199.451C80.6292 177.426 98.4839 159.571 120.509 159.571ZM360.12 39.0615C382.145 39.0615 399.999 56.9162 399.999 78.9428C399.999 100.968 382.145 118.822 360.12 118.822C355.268 118.822 350.64 117.913 346.34 116.327L309.843 173.621C315.774 180.582 319.371 189.591 319.371 199.451C319.371 221.477 301.517 239.333 279.49 239.333C257.465 239.333 239.61 221.477 239.61 199.451C239.61 188.932 243.713 179.391 250.371 172.265L210.949 117.194C207.387 118.238 203.629 118.822 199.729 118.822C195.768 118.822 191.949 118.226 188.338 117.151L163.599 153.547C160.568 158.002 154.504 159.155 150.049 156.13C145.593 153.102 144.437 147.037 147.465 142.58L171.545 107.157C164.318 99.9381 159.848 89.9631 159.848 78.9428C159.848 56.9162 177.704 39.0615 199.729 39.0615C221.754 39.0615 239.61 56.9162 239.61 78.9428C239.61 90.01 235.096 100.019 227.815 107.246L266.779 161.677C270.774 160.33 275.042 159.571 279.49 159.571C284.587 159.571 289.443 160.563 293.923 162.305L330.24 105.294C324.034 98.2646 320.238 89.0568 320.238 78.9428C320.238 56.9162 338.093 39.0615 360.12 39.0615Z" fill="#546FFF"/>
</g>
<defs>
<clipPath id="clip0_100_60202">
<rect width="400" height="400" fill="white"/>
</clipPath>
</defs>
</svg>
