<svg width="400" height="400" viewBox="0 0 400 400" fill="none" xmlns="http://www.w3.org/2000/svg">
<path d="M120.131 30C151.926 30 174.349 47.5784 188.085 78.9326L271.978 272.625C293.24 321.599 333.326 316.032 333.326 316.032V34.8842H400V235.424C400 311.984 333.404 316.028 333.326 316.032C333.326 343.622 311.66 369.411 279.825 369.411C247.992 369.411 225.607 351.793 211.873 320.439L127.941 126.786C106.758 77.8523 66.632 83.3795 66.632 83.3795V364.527H0V163.987C0 87.6268 66.2666 83.3955 66.632 83.3795C66.632 55.7894 88.3375 30 120.131 30Z" fill="#052B42"/>
</svg>
