<svg width="400" height="400" viewBox="0 0 400 400" fill="none" xmlns="http://www.w3.org/2000/svg">
<g clip-path="url(#clip0_100_60194)">
<path d="M170.2 149.617V127.017C172.317 126.85 174.467 126.733 176.667 126.667C236.6 124.717 275.95 179.733 275.95 179.733C275.95 179.733 233.483 240.517 187.917 240.517C181.89 240.544 175.901 239.558 170.2 237.6V169.117C193.533 172.017 198.217 182.65 212.25 206.75L243.467 179.633C236.102 170.388 226.819 162.849 216.26 157.538C205.7 152.226 194.114 149.268 182.3 148.867C178.24 148.886 174.183 149.131 170.15 149.6M170.15 75V108.75C172.317 108.583 174.467 108.433 176.617 108.35C259.983 105.45 314.3 178.783 314.3 178.783C314.3 178.783 251.917 256.95 186.917 256.95C181.283 256.95 175.667 256.433 170.133 255.417V276.25C174.767 276.883 179.433 277.2 184.1 277.2C244.583 277.2 288.317 245.367 330.667 207.717C337.683 213.5 366.433 227.6 372.35 233.783C332.083 268.5 238.217 296.5 185.017 296.5C179.883 296.5 174.967 296.167 170.117 295.7V325.017H400V75.0167H170.167L170.15 75ZM170.15 237.6V255.4C114.217 245.133 98.7002 185.233 98.7002 185.233C117.73 165.518 142.954 152.939 170.15 149.6V169.133H170.067C162.087 169.058 154.193 170.784 146.972 174.183C139.752 177.582 133.392 182.568 128.367 188.767C128.367 188.767 138.617 226.683 170.15 237.6ZM70.8002 182.617C94.7335 150.367 130.867 130.15 170.15 127.017V108.733C96.8335 114.8 33.3335 178.733 33.3335 178.733C33.3335 178.733 69.3002 285.85 170.167 295.65V276.217C96.1668 266.683 70.8335 182.65 70.8335 182.65H70.8002V182.617Z" fill="#74B71B"/>
</g>
<defs>
<clipPath id="clip0_100_60194">
<rect width="400" height="400" fill="white"/>
</clipPath>
</defs>
</svg>
