<svg width="400" height="400" viewBox="0 0 400 400" fill="none" xmlns="http://www.w3.org/2000/svg">
<path fill-rule="evenodd" clip-rule="evenodd" d="M359.179 166.736C363.34 154.397 364.783 141.304 363.408 128.355C362.033 115.407 357.872 102.909 351.212 91.7192C330.929 56.8859 290.179 38.9525 250.379 47.3859C241.564 37.6258 230.782 29.8427 218.743 24.5485C206.704 19.2543 193.68 16.569 180.529 16.6692C139.846 16.5859 103.746 42.4359 91.229 80.6359C78.3632 83.2113 66.1921 88.493 55.5231 96.1306C44.8541 103.768 35.9309 113.587 29.3457 124.936C19.392 141.84 15.138 161.497 17.2117 181.005C19.2855 200.512 27.5772 218.835 40.8623 233.269C36.6958 245.609 35.2491 258.705 36.6214 271.656C37.9937 284.608 42.1525 297.11 48.8123 308.303C69.0957 343.136 109.846 361.053 149.646 352.636C158.458 362.394 169.237 370.175 181.274 375.467C193.31 380.758 206.331 383.44 219.479 383.336C260.196 383.436 296.312 357.569 308.829 319.336C321.704 316.761 333.883 311.476 344.558 303.832C355.234 296.189 364.16 286.361 370.746 275.003C380.68 258.099 384.921 238.451 382.841 218.955C380.762 199.459 372.472 181.147 359.196 166.719L359.179 166.736ZM219.496 359.369C203.239 359.408 187.476 353.787 174.912 343.469C175.479 343.169 176.462 342.636 177.112 342.236L251.112 300.069C252.959 299.039 254.496 297.532 255.563 295.706C256.63 293.88 257.188 291.801 257.179 289.686V186.753L288.462 204.569C288.796 204.736 289.012 205.053 289.062 205.403V290.653C289.012 328.553 257.896 359.286 219.496 359.369ZM69.879 296.336C61.7228 282.462 58.78 266.134 61.579 250.286C62.1123 250.619 63.079 251.203 63.7623 251.586L137.762 293.753C141.512 295.919 146.162 295.919 149.929 293.753L240.262 242.286V277.919C240.27 278.102 240.233 278.284 240.154 278.45C240.076 278.615 239.958 278.759 239.812 278.869L165.012 321.469C131.696 340.403 89.1457 329.136 69.8957 296.303L69.879 296.336ZM50.3957 136.936C58.5838 122.969 71.412 112.317 86.6457 106.836L86.6123 109.353V193.686C86.6022 195.803 87.1595 197.885 88.2264 199.714C89.2933 201.543 90.8309 203.052 92.679 204.086L183.012 255.536L151.746 273.369C151.591 273.468 151.414 273.528 151.231 273.542C151.048 273.557 150.864 273.526 150.696 273.453L75.879 230.803C42.629 211.803 31.229 169.836 50.379 136.969L50.3957 136.936ZM307.346 195.936L217.012 144.469L248.279 126.669C248.432 126.567 248.608 126.505 248.791 126.487C248.975 126.47 249.159 126.498 249.329 126.569L324.146 169.186C357.446 188.186 368.862 230.219 349.629 263.069C341.434 277.027 328.617 287.681 313.396 293.186V206.336C313.406 204.223 312.851 202.145 311.787 200.319C310.723 198.493 309.189 196.985 307.346 195.953V195.936ZM338.462 149.719C337.735 149.277 337.001 148.843 336.262 148.419L262.262 106.253C260.414 105.189 258.319 104.63 256.187 104.63C254.055 104.63 251.96 105.189 250.112 106.253L159.779 157.719V122.086C159.772 121.903 159.809 121.721 159.887 121.556C159.966 121.39 160.083 121.246 160.229 121.136L235.012 78.5525C268.346 59.6025 310.929 70.8859 330.129 103.769C338.246 117.653 341.212 133.919 338.462 149.719ZM142.779 213.219L111.496 195.419C111.332 195.339 111.192 195.219 111.087 195.071C110.982 194.922 110.916 194.75 110.896 194.569V109.319C110.912 71.3692 142.112 40.6192 180.579 40.6525C196.846 40.6525 212.579 46.2859 225.096 56.5525C224.529 56.8525 223.562 57.3859 222.912 57.7692L148.912 99.9359C147.062 100.964 145.522 102.47 144.452 104.296C143.382 106.123 142.822 108.203 142.829 110.319L142.779 213.203V213.219ZM159.779 177.086L200.012 154.169L240.246 177.086V222.919L200.012 245.836L159.762 222.919V177.086H159.779Z" fill="#10A37F"/>
</svg>
