<svg width="400" height="400" viewBox="0 0 400 400" fill="none" xmlns="http://www.w3.org/2000/svg">
<g clip-path="url(#clip0_100_60219)">
<path d="M202.868 80.5337C197.928 80.7399 193.258 82.8476 189.835 86.4164C186.412 89.9851 184.501 94.7387 184.501 99.6837C184.501 104.629 186.412 109.382 189.835 112.951C193.258 116.52 197.928 118.628 202.868 118.834C207.809 118.628 212.479 116.52 215.902 112.951C219.325 109.382 221.236 104.629 221.236 99.6837C221.236 94.7387 219.325 89.9851 215.902 86.4164C212.479 82.8476 207.809 80.7399 202.868 80.5337ZM369.385 80.5337C364.444 80.7399 359.774 82.8476 356.352 86.4164C352.929 89.9851 351.017 94.7387 351.017 99.6837C351.017 104.629 352.929 109.382 356.352 112.951C359.774 116.52 364.444 118.628 369.385 118.834C374.326 118.628 378.995 116.52 382.418 112.951C385.841 109.382 387.752 104.629 387.752 99.6837C387.752 94.7387 385.841 89.9851 382.418 86.4164C378.995 82.8476 374.326 80.7399 369.385 80.5337ZM111.218 133.434C110.947 133.423 110.678 133.495 110.449 133.641C110.219 133.787 110.04 134 109.935 134.25L77.3849 205.8H12.5516C12.1313 205.795 11.7184 205.911 11.3633 206.136C11.0082 206.361 10.7261 206.685 10.5516 207.067L0.118239 230.367C0.0358431 230.553 0.000576923 230.756 0.0155732 230.958C0.0305695 231.161 0.0953641 231.357 0.204201 231.528C0.313038 231.7 0.462548 231.842 0.63945 231.941C0.816351 232.041 1.01517 232.096 1.21824 232.1H65.4349L26.6682 317.45C26.5641 317.666 26.5162 317.904 26.529 318.143C26.5417 318.381 26.6147 318.613 26.7412 318.816C26.8676 319.019 27.0434 319.187 27.2522 319.303C27.4609 319.42 27.6958 319.482 27.9349 319.484H55.5016C55.7752 319.474 56.041 319.39 56.2702 319.24C56.4993 319.09 56.6831 318.881 56.8016 318.634L140.118 135.434C140.216 135.22 140.259 134.984 140.242 134.749C140.225 134.514 140.149 134.288 140.021 134.09C139.893 133.892 139.717 133.73 139.51 133.618C139.303 133.506 139.07 133.449 138.835 133.45L111.218 133.434ZM169.185 133.434C168.977 133.421 168.771 133.474 168.595 133.585C168.418 133.695 168.281 133.858 168.202 134.05L158.535 155.467C158.462 155.63 158.432 155.809 158.446 155.987C158.461 156.165 158.52 156.336 158.618 156.485C158.715 156.634 158.849 156.757 159.006 156.841C159.164 156.925 159.34 156.968 159.518 156.967H176.568C179.666 156.902 182.762 157.125 185.818 157.634C199.568 159.75 208.085 169.834 207.885 183.2C207.75 189.285 205.23 195.073 200.869 199.319C196.508 203.565 190.655 205.928 184.568 205.9H123.502C122.993 205.901 122.495 206.048 122.067 206.322C121.639 206.597 121.298 206.988 121.085 207.45L110.918 229.784C110.806 230.032 110.758 230.305 110.779 230.577C110.8 230.848 110.89 231.11 111.04 231.338C111.189 231.566 111.394 231.752 111.635 231.88C111.876 232.007 112.146 232.072 112.418 232.067H183.852C213.452 232.067 237.085 206.517 233.768 177.084C232.51 165.394 227.085 154.549 218.484 146.533C209.884 138.517 198.684 133.867 186.935 133.434L186.285 133.5L185.935 133.434H169.185ZM277.118 133.434C276.848 133.44 276.585 133.519 276.356 133.663C276.127 133.807 275.941 134.01 275.818 134.25L192.502 317.45C192.405 317.668 192.363 317.906 192.382 318.144C192.4 318.381 192.477 318.61 192.606 318.81C192.735 319.01 192.912 319.175 193.121 319.29C193.329 319.405 193.563 319.465 193.802 319.467H221.402C221.952 319.467 222.452 319.134 222.668 318.634L306.002 135.434C306.096 135.218 306.135 134.982 306.115 134.748C306.095 134.513 306.017 134.287 305.888 134.09C305.759 133.894 305.583 133.732 305.376 133.62C305.169 133.508 304.937 133.45 304.702 133.45L277.118 133.434ZM335.085 133.434C334.886 133.432 334.69 133.489 334.524 133.599C334.358 133.709 334.228 133.866 334.152 134.05L324.485 155.467C324.152 156.184 324.652 156.967 325.418 156.967H342.468C346.102 156.917 348.768 157.167 351.718 157.634C365.468 159.75 374.018 169.834 373.818 183.2C373.683 189.282 371.166 195.068 366.808 199.313C362.451 203.558 356.602 205.924 350.518 205.9H289.385C288.879 205.904 288.385 206.052 287.96 206.327C287.535 206.601 287.197 206.991 286.985 207.45L276.818 229.784C276.706 230.032 276.658 230.305 276.679 230.577C276.7 230.848 276.79 231.11 276.94 231.338C277.089 231.566 277.294 231.752 277.535 231.88C277.776 232.007 278.046 232.072 278.318 232.067H349.735C379.352 232.067 403.002 206.517 399.702 177.084C398.426 165.395 392.991 154.555 384.387 146.542C375.783 138.529 364.584 133.876 352.835 133.434C352.611 133.433 352.388 133.456 352.168 133.5L351.818 133.434H335.085Z" fill="black"/>
</g>
<defs>
<clipPath id="clip0_100_60219">
<rect width="400" height="400" fill="white"/>
</clipPath>
</defs>
</svg>
