<svg width="400" height="400" viewBox="0 0 400 400" fill="none" xmlns="http://www.w3.org/2000/svg">
<g clip-path="url(#clip0_2788_30526)">
<path d="M239.533 16.5829L289.041 16.5822L304.438 16.5643C307.178 16.561 311.019 16.4512 313.642 16.665C320.267 30.2758 326.71 44.2312 333.186 57.9304L369.699 135.173L390.404 178.963L396.898 192.686C398.022 195.062 399.568 198.092 400.5 200.454L336.946 334.933C329.321 351.053 320.941 368.057 313.628 384.261C312.59 384.632 296.862 384.42 294.763 384.417L239.574 384.426C237.026 378.213 232.714 369.785 229.786 363.593L210.149 322.036C207.074 315.513 203.411 308.259 200.59 301.707C200.343 300.553 195.723 291.02 194.924 289.335L180.031 257.844L168.944 234.384C167.868 232.107 164.589 224.815 163.463 223.161C162.408 221.378 160.632 217.34 159.672 215.308L152.659 200.384C156.218 192.833 159.811 184.94 163.541 177.498C164.449 176.251 167.774 168.959 168.588 167.237L179.296 144.585L193.979 113.531C195.232 110.88 199.915 101.401 200.574 99.1779C201.827 96.1191 203.671 92.4666 205.108 89.4262L213.303 72.0946L239.533 16.5829Z" fill="#3DB4E5"/>
<path d="M239.533 16.5829L289.041 16.5822L304.438 16.5643C307.178 16.561 311.019 16.4512 313.642 16.665C310.886 23.1242 307.27 30.2975 304.236 36.723L286.285 74.7065L279.721 88.561C278.936 90.2158 277.192 93.5952 276.621 95.1503L243.011 166.244L232.302 188.886C230.775 192.113 228.143 197.248 226.881 200.445L276.59 305.603L303.474 362.466C305.673 367.186 307.899 371.892 310.146 376.589C310.875 378.118 313.216 382.818 313.628 384.261C312.59 384.632 296.862 384.42 294.763 384.417L239.574 384.426C237.026 378.213 232.714 369.785 229.786 363.593L210.149 322.036C207.074 315.513 203.411 308.259 200.59 301.707C200.343 300.553 195.723 291.02 194.924 289.335L180.031 257.844L168.944 234.384C167.868 232.107 164.589 224.815 163.463 223.161C162.408 221.378 160.632 217.34 159.672 215.308L152.659 200.384C156.218 192.833 159.811 184.94 163.541 177.498C164.449 176.251 167.774 168.959 168.588 167.237L179.296 144.585L193.979 113.531C195.232 110.88 199.915 101.401 200.574 99.1779C201.827 96.1191 203.671 92.4666 205.108 89.4262L213.303 72.0946L239.533 16.5829Z" fill="#093C62"/>
<path d="M276.622 95.1499C289.19 120.883 301.042 147.34 313.529 173.141C317.882 182.14 322 191.397 326.434 200.345L291.926 273.397L281.586 295.289C280.608 297.357 277.622 304.009 276.59 305.602L226.881 200.444C228.144 197.247 230.775 192.113 232.302 188.886L243.011 166.244L276.622 95.1499Z" fill="white"/>
<path d="M87.4059 16.5813C94.2228 16.5799 160.486 16.2993 161.563 16.7887C165.168 24.0432 168.669 31.7091 172.146 39.0641L191.022 79.0026C194.117 85.5587 197.329 92.7437 200.574 99.1781C199.916 101.401 195.232 110.88 193.979 113.531L179.296 144.585L168.588 167.237C167.774 168.96 164.449 176.251 163.541 177.498C159.811 184.94 156.218 192.833 152.659 200.384L159.672 215.308C160.632 217.34 162.408 221.378 163.463 223.161C164.589 224.815 167.868 232.108 168.944 234.384L180.031 257.844L194.925 289.335C195.723 291.021 200.343 300.553 200.59 301.707C198.004 306.723 195.413 312.526 192.986 317.667L179.532 346.137L167.754 371.05C165.79 375.211 163.314 380.091 161.582 384.257C160.476 384.642 144.84 384.42 142.797 384.418L87.4629 384.431C84.6116 377.727 80.4634 369.525 77.2942 362.819L57.4134 320.773L0.5 200.411L87.4059 16.5813Z" fill="#093C62"/>
<path d="M161.563 16.7886C165.168 24.0431 168.669 31.7089 172.146 39.0639L191.022 79.0025C194.117 85.5585 197.329 92.7436 200.574 99.1779C199.916 101.401 195.232 110.88 193.979 113.531L179.296 144.585L168.588 167.237C167.774 168.959 164.449 176.251 163.541 177.498C159.811 184.94 156.218 192.833 152.659 200.384L159.672 215.308C160.632 217.339 162.408 221.378 163.463 223.161C164.589 224.815 167.868 232.107 168.944 234.384L180.031 257.844L194.925 289.335C195.723 291.02 200.343 300.553 200.59 301.707C198.004 306.723 195.413 312.526 192.986 317.667L179.532 346.137L167.754 371.05C165.79 375.211 163.314 380.091 161.582 384.257C160.894 382.431 159.39 379.478 158.514 377.639L153.125 366.238L133.319 324.31C130.652 318.64 126.742 311.153 124.495 305.6C107.596 270.929 91.3197 235.311 74.7058 200.422L109.141 127.609C114.128 117.06 119.289 105.631 124.488 95.2652C124.681 94.5387 126.852 90.0952 127.281 89.1961L134.014 75.0563L161.563 16.7886Z" fill="white"/>
<path d="M161.563 16.7886C165.168 24.0431 168.669 31.7089 172.146 39.0639L191.022 79.0025C194.117 85.5585 197.329 92.7436 200.574 99.1779C199.916 101.401 195.232 110.88 193.979 113.531L179.296 144.585L168.588 167.237C167.774 168.959 164.449 176.251 163.541 177.498C162.423 175.54 161.037 172.381 160.045 170.283L153.651 156.741L135.228 117.785C131.912 110.749 128.054 101.957 124.488 95.2652C124.681 94.5387 126.852 90.0952 127.281 89.1961L134.014 75.0563L161.563 16.7886Z" fill="#3DB4E5"/>
<path d="M163.463 223.161C164.589 224.815 167.868 232.107 168.944 234.384L180.031 257.844L194.924 289.335C195.723 291.02 200.343 300.553 200.59 301.707C198.004 306.723 195.413 312.526 192.986 317.667L179.531 346.137L167.754 371.05C165.79 375.211 163.314 380.091 161.582 384.257C160.894 382.431 159.39 379.478 158.514 377.639L153.125 366.238L133.319 324.31C130.652 318.64 126.742 311.153 124.495 305.6C126.968 300.883 129.492 295.217 131.79 290.353L144.57 263.295L156.717 237.624C158.859 233.092 161.559 227.725 163.463 223.161Z" fill="#3DB4E5"/>
</g>
<defs>
<clipPath id="clip0_2788_30526">
<rect width="400" height="400" fill="white"/>
</clipPath>
</defs>
</svg>
