<svg width="400" height="400" viewBox="0 0 400 400" fill="none" xmlns="http://www.w3.org/2000/svg">
<g clip-path="url(#clip0_2788_30539)">
<path d="M187.563 0H212.609C214.135 0.65477 219.492 0.768457 221.383 0.936885C224.029 1.19474 226.67 1.51649 229.303 1.90185C237.842 3.15436 246.289 4.96812 254.588 7.33135C310.256 23.1531 356.408 62.1922 381.242 114.465C387.219 127.198 391.85 140.52 395.059 154.214C396.807 161.58 398.092 169.048 398.908 176.575C399.088 178.228 399.463 185.179 400 186.169V213.777C399.291 215.787 399.316 219.047 399.145 221.242C398.957 223.453 398.705 225.658 398.391 227.855C397.047 237.195 395.07 246.434 392.475 255.506C377.016 308.715 340.299 353.193 290.982 378.453C273.191 387.541 254.123 393.881 234.43 397.252C230.572 397.93 226.691 398.484 222.797 398.914C220.752 399.145 215.1 399.375 213.566 400H186.603C185.219 399.342 177.144 398.896 174.774 398.592C170.792 398.07 166.825 397.432 162.88 396.68C140.188 392.418 118.406 384.26 98.4982 372.564C52.6049 345.4 19.348 301.154 6.01238 249.518C3.92586 241.424 2.53971 233.416 1.3372 225.158C0.79358 221.428 0.975529 214.699 0 211.404V188.579C0.303436 187.598 0.4024 186.527 0.454621 185.503C0.75148 179.68 1.41445 174.084 2.36174 168.336C5.56992 147.969 11.935 128.227 21.2273 109.822C46.6598 59.3307 92.2826 21.9693 146.797 6.99094C155.091 4.71199 163.521 2.96316 172.037 1.75509C174.184 1.45706 176.388 1.23694 178.519 0.960457C180.921 0.648754 185.41 0.830033 187.563 0Z" fill="#CE1C00"/>
<path d="M227.068 72.4414C241.734 72.6143 256.443 72.3752 271.113 72.466C273.492 72.4807 275.885 72.407 278.262 72.5146C279.648 74.7707 281.984 80.1035 283.238 82.7584L292.705 102.801L323.34 167.628L333.338 188.792C334.84 191.971 336.982 196.874 338.613 199.814L296.283 289.511L283.902 315.738C282.975 317.706 279.154 326.115 278.33 327.312C272.375 327.458 266.006 327.357 260.016 327.359H227.033C218.601 308.431 208.869 289.162 200.146 270.24C199.859 268.605 175.8 217.747 174.517 216.001C172.025 210.697 169.266 205.15 166.904 199.818C169.463 194.509 171.986 189.183 174.474 183.84C175.634 182.324 178.554 175.833 179.483 173.87L188.989 153.765L196.392 138.088C197.338 136.083 199.644 131.469 200.25 129.492C200.812 127.944 202.082 125.414 202.803 123.886L207.342 114.288L220.744 85.9393C222.754 81.668 225.264 76.7238 227.068 72.4414Z" fill="#B8B7B6"/>
<path d="M227.068 72.4414C241.734 72.6143 256.443 72.3752 271.113 72.466C273.492 72.4807 275.885 72.407 278.262 72.5146C277.209 74.1492 275.144 78.8467 274.244 80.7643L266.746 96.6609L257.476 116.249C256.228 118.882 253.447 124.381 252.568 126.969C251.383 129.912 249.689 133.278 248.312 136.177L241.318 150.949L218.168 199.904L241.736 249.792L248.873 264.869C249.834 266.896 251.961 271.134 252.617 273.099C254.336 277.458 257.205 283.111 259.258 287.423L269.553 309.234L274.902 320.566C275.656 322.169 277.394 326.111 278.33 327.312C272.375 327.458 266.006 327.357 260.016 327.359H227.033C218.601 308.431 208.869 289.162 200.146 270.24C199.859 268.605 175.8 217.747 174.517 216.001C172.025 210.697 169.266 205.15 166.904 199.818C169.463 194.509 171.986 189.183 174.474 183.84C175.634 182.324 178.554 175.833 179.483 173.87L188.989 153.765L196.392 138.088C197.338 136.083 199.644 131.469 200.25 129.492C200.812 127.944 202.082 125.414 202.803 123.886L207.342 114.288L220.744 85.9393C222.754 81.668 225.264 76.7238 227.068 72.4414Z" fill="#FEFEFE"/>
<path d="M252.568 126.97C253.312 127.479 254.721 130.823 255.182 131.802L261.021 144.196L287.32 199.783C286.279 202.506 284.248 206.457 282.961 209.178L274.932 226.182L258.621 260.727C257.846 262.367 253.451 272.209 252.617 273.1C251.961 271.135 249.834 266.896 248.873 264.869L241.736 249.793L218.168 199.904L241.318 150.949L248.312 136.177C249.689 133.278 251.383 129.912 252.568 126.97Z" fill="#CE1C00"/>
<path d="M121.595 72.4424C136.28 72.6107 151.006 72.3781 165.695 72.4662C168.058 72.4803 170.433 72.408 172.794 72.5152C176.515 78.5873 198.471 128.321 200.25 129.492C199.645 131.469 197.338 136.084 196.393 138.088L188.989 153.765L179.483 173.87C178.554 175.834 175.634 182.325 174.474 183.841C171.986 189.183 169.463 194.509 166.904 199.818C169.266 205.15 172.025 210.697 174.517 216.002C175.8 217.748 199.859 268.605 200.146 270.24C199.08 271.476 195.801 278.998 194.852 281.019L179.717 313.033L175.29 322.42C174.76 323.539 173.479 326.406 172.862 327.316C166.891 327.461 160.488 327.357 154.48 327.357L121.561 327.359C119.614 322.756 116.852 317.275 114.693 312.705L101.666 285.121L61.4102 199.859L100.994 116.146L114.566 87.4494C116.789 82.7486 119.599 77.1805 121.595 72.4424Z" fill="#FEFEFE"/>
<path d="M172.794 72.5146C176.515 78.5867 198.471 128.321 200.25 129.492C199.645 131.468 197.338 136.083 196.393 138.088L188.989 153.764L179.483 173.87C178.554 175.833 175.634 182.324 174.474 183.84C171.986 189.183 169.463 194.509 166.904 199.818C169.266 205.15 172.025 210.696 174.517 216.001C175.8 217.747 199.859 268.605 200.146 270.239C199.08 271.476 195.801 278.997 194.852 281.019L179.717 313.032L175.29 322.419C174.76 323.538 173.479 326.405 172.862 327.316C171.901 326.079 169.833 321.427 169.034 319.724L163.217 307.382L153.385 286.585C151.426 282.472 148.777 277.255 147.144 273.099C146.26 270.624 144.303 266.771 143.124 264.28L135.891 249.001L112.695 199.905L135.887 150.859L142.993 135.853C144.328 133.04 145.987 129.745 147.126 126.89C147.997 124.346 150.619 119.168 151.838 116.592L160.811 97.6361L168.667 80.9918C169.574 79.0635 171.744 74.1396 172.794 72.5146Z" fill="#CE1C00"/>
<path d="M174.517 216.002C175.8 217.748 199.859 268.605 200.146 270.24C199.08 271.477 195.801 278.998 194.852 281.02L179.717 313.033L175.29 322.42C174.76 323.539 173.479 326.406 172.862 327.316C171.901 326.08 169.833 321.428 169.034 319.725L163.217 307.383L153.385 286.586C151.426 282.473 148.777 277.256 147.144 273.1C147.722 272.496 151.18 264.824 151.757 263.59L167.283 230.812L171.544 221.73C172.218 220.293 173.604 217.123 174.517 216.002Z" fill="#B8B7B6"/>
<path d="M172.794 72.5146C176.515 78.5867 198.471 128.321 200.25 129.492C199.645 131.468 197.338 136.083 196.393 138.088L188.989 153.764L179.483 173.87C178.554 175.833 175.634 182.324 174.474 183.84C173.713 182.954 168.898 172.517 167.961 170.537L151.989 136.78C151.19 135.063 147.99 127.782 147.126 126.89C147.997 124.346 150.619 119.168 151.838 116.592L160.811 97.6361L168.667 80.9918C169.574 79.0635 171.744 74.1396 172.794 72.5146Z" fill="#B8B7B6"/>
</g>
<defs>
<clipPath id="clip0_2788_30539">
<rect width="400" height="400" fill="white"/>
</clipPath>
</defs>
</svg>
