<svg width="400" height="400" viewBox="0 0 400 400" fill="none" xmlns="http://www.w3.org/2000/svg">
<g clip-path="url(#clip0_100_60196)">
<path d="M404.791 250.787L351.351 158.01L379.555 110.59C381.81 106.632 381.81 101.739 379.555 97.7802L351.351 50.3608C349.922 47.8043 347.2 46.2099 344.204 46.2099H240.019L215.993 4.15092C214.563 1.59439 211.842 0 208.846 0H153.207C150.21 0 147.489 1.59439 146.06 4.15092L92.6199 96.9006H36.9811C33.9847 96.9006 31.2633 98.495 29.8338 101.051L1.62957 148.471C-0.62457 152.429 -0.62457 157.323 1.62957 161.281L49.3514 247.351L25.3255 289.41C23.0714 293.368 23.0714 298.261 25.3255 302.22L53.5298 349.639C54.9592 352.196 57.6807 353.79 60.6771 353.79H164.862L188.888 395.849C190.318 398.406 193.039 400 196.035 400H251.674C254.671 400 257.392 398.406 258.822 395.849L312.261 303.099H359.983C362.979 303.099 365.701 301.505 367.13 298.949L395.334 251.529C397.589 247.571 397.589 242.677 395.334 238.719L404.791 250.787Z" fill="url(#paint0_radial_100_60196)"/>
<path d="M251.674 399.999H196.035L164.862 349.639H60.677L92.6198 299.278H146.059L29.8337 103.827H92.6198L153.207 4.15039L181.411 54.5112L153.207 103.827H368.395L340.19 151.247L393.63 243.996H340.19L312.261 194.68L202.358 399.999H251.674Z" fill="white"/>
<path d="M275.7 171.288H133.524L202.358 287.513L275.7 171.288Z" fill="url(#paint1_radial_100_60196)"/>
</g>
<defs>
<radialGradient id="paint0_radial_100_60196" cx="0" cy="0" r="1" gradientUnits="userSpaceOnUse" gradientTransform="translate(199.114 226.734) rotate(90) scale(274.895 274.895)">
<stop stop-color="#665CEE"/>
<stop offset="1" stop-color="#332E91"/>
</radialGradient>
<radialGradient id="paint1_radial_100_60196" cx="0" cy="0" r="1" gradientUnits="userSpaceOnUse" gradientTransform="translate(199.114 226.734) rotate(90) scale(274.895 274.895)">
<stop stop-color="#665CEE"/>
<stop offset="1" stop-color="#332E91"/>
</radialGradient>
<clipPath id="clip0_100_60196">
<rect width="400" height="400" fill="white"/>
</clipPath>
</defs>
</svg>
