<svg width="400" height="400" viewBox="0 0 400 400" fill="black" xmlns="http://www.w3.org/2000/svg">
<path d="M199.322 0H200.496C201.966 0.977193 204.595 1.60064 206.337 2.44485C210.473 4.44973 214.789 6.36165 218.809 8.58792C230.551 15.0885 241.387 23.1047 251.038 32.4305C253.87 35.15 256.558 38.318 259.453 41.103C279.878 38.02 300.73 39.4793 320.525 45.3768C323.38 46.2525 327.43 47.2073 329.905 48.8213C332.152 50.2865 333.217 54.0005 334.467 56.566C341.852 71.7305 346.547 87.6865 348.872 104.371C349.355 107.818 349.885 114.668 349.443 118.103C366.498 128.348 381.77 144.231 393.115 160.453C394.967 163.1 397.908 166.725 398.788 169.849C400.71 176.668 389.845 203.018 386.64 209.716C384.438 214.323 381.89 218.728 379.215 223.076C376.35 227.729 373.217 232.407 369.735 236.622C371.61 240.714 373.253 248.145 374.13 252.655C378.173 273.45 378.22 287.497 374.758 308.245C371.828 311.585 368.58 313.69 364.957 316.253C348.515 327.718 329.942 335.773 310.335 339.94C308.132 344.4 306.24 349.052 303.983 353.467C296.58 367.945 280.828 388.68 267.795 398.543C262.478 399.22 260.077 398.16 255.182 397.783C241.091 396.695 226.781 392.902 213.626 387.8C208.684 385.882 203.315 382.668 198.592 380.703L198.286 380.788C195.339 381.635 187.627 385.522 183.893 387.085C168.219 393.642 145.677 398.783 128.651 397.668C125.288 395.135 122.144 391.717 119.196 388.75C108.624 378.108 100.323 365.922 93.3737 352.682C91.041 348.237 89.2883 343.155 86.9465 338.845C66.6508 334.35 47.51 325.687 30.7385 313.405C28.2298 311.547 24.7744 309.583 23.1424 306.878C19.8147 301.36 20.7319 274.557 21.2127 267.74C21.5038 263.612 22.1172 259.397 22.7713 255.31C23.7213 249.374 25.47 243.277 27.0947 237.485C27.3317 236.64 27.6072 235.805 27.9205 234.985L27.745 234.671C25.8673 231.341 22.8405 227.428 20.7011 224.059C16.1361 216.951 12.1705 209.477 8.8455 201.712C6.66715 196.688 4.9628 191.055 3.18123 185.909C2.429 183.737 0.61709 174.945 0 173.975V167.069C0.552132 166.346 1.96568 163.872 2.5503 162.943C4.28787 160.223 6.08197 157.54 7.9314 154.895C14.1106 146.189 22.6142 137.401 30.58 130.323C34.2822 127.211 37.8773 124.517 41.817 121.649C42.918 120.717 48.847 117.734 49.0547 116.604C49.8375 112.347 50.0002 104.478 50.632 100.381C52.137 90.9627 54.4492 81.6912 57.5425 72.669C59.171 67.8435 66.3345 48.9477 70.2495 47.0565C73.1012 45.679 76.496 44.956 79.5512 44.1247C96.798 39.4327 117.663 36.8673 135.367 39.6495C137.094 39.921 138.783 39.9717 140.448 40.5565C153.257 23.7167 176.442 9.61447 195.796 1.57332C197.062 1.04705 198.204 0.89468 199.322 0ZM120.122 108.664C119.119 113.129 118.926 117.173 118.44 121.68C117.219 132.995 117.742 144.334 118.351 155.662C118.409 156.746 117.664 157.999 116.672 158.454C112.822 160.536 108.586 162.315 104.635 164.248C96.6257 168.167 89.4198 172.85 82.4983 178.466C81.0513 179.64 78.6255 181.469 77.3978 182.691C78.419 184.946 80.262 187.616 81.5758 189.785C88.8215 201.746 96.752 210.175 106.647 219.74C105.392 223.143 104.428 226.632 103.059 229.996C98.8582 240.317 94.8052 250.723 92.9362 261.765C92.6625 263.383 91.6885 265.007 91.626 266.645C93.612 268.902 111.651 273.558 115.769 274.265C120.229 275.035 126.819 275.51 131.516 276.302C133.553 276.625 136.515 276.84 138.381 277.415C140.564 280.43 141.147 285.43 142.199 288.922C143.215 292.29 144.316 296.09 145.563 299.353C147.288 303.96 149.203 308.492 151.305 312.938C152.921 316.277 154.825 319.36 156.09 322.832C164.366 320.1 175.775 314.652 183.097 310.022C188.162 306.817 193.566 303.003 198.728 299.69C203.354 302.328 208.229 305.985 212.825 308.932C219.092 312.907 225.642 316.42 232.424 319.435C235.092 320.652 238.496 322.37 241.294 322.96C248.187 311.1 253.463 298.37 256.983 285.112C257.355 283.727 258.588 277.98 259.918 277.68C264.393 276.667 270.333 277.23 274.76 276.37C279.21 275.507 284.055 274.857 288.38 273.872C294.483 272.48 300.65 270.315 306.64 268.582C304.045 254.737 300.77 243.013 295.043 230.137C294.023 227.844 292.815 224.238 291.845 222.243C295.045 216.83 303.648 209.755 307.758 204.278C310.88 200.116 314.057 196.031 316.965 191.663C318.542 189.292 320.17 186.295 321.755 184.065C313.943 176.948 303.297 169.964 293.99 164.971C289.685 162.66 285.225 161.02 281.235 158.312C280.23 152.815 282.145 141.171 281.767 134.919C281.432 129.408 281.31 123.631 280.832 118.068C280.6 115.334 279.91 112.013 279.88 109.434C267.618 109.625 256.72 110.361 244.791 113.354C240.39 114.459 235.743 114.997 231.34 116.353C230.154 114 227.892 110.998 226.323 108.823C219.712 99.6562 212.386 90.8192 203.957 83.2615C203.149 82.5367 200.678 80.073 199.962 79.6533C189.61 88.8428 180.175 98.3668 172.488 109.937C171.491 111.439 168.812 116.027 167.085 115.772C160.575 114.811 153.748 111.926 147.287 110.914C141.439 110.004 135.548 109.398 129.637 109.098C126.897 108.95 122.662 108.994 120.122 108.664ZM13.5936 171.617C14.4539 174.327 15.0706 177.069 15.8345 179.818C19.3554 192.486 24.5675 203.756 31.2865 215.042C32.5543 217.141 33.8385 219.002 35.1003 221.037C36.9683 217.589 38.327 213.904 40.14 210.497C44.897 201.555 50.541 192.835 56.9938 185.025C58.5 183.215 60.3482 181.607 61.7865 179.773C56.64 167.48 53.537 154.468 51.901 141.275C51.7275 139.876 51.1888 133.27 50.4785 132.708C37.8295 141.867 27.23 151.765 18.1418 164.575C16.8772 166.357 14.3953 169.67 13.5936 171.617ZM80.1837 322.628C80.9227 322.83 82.7455 323.418 83.414 323.345C83.3783 322.753 83.2605 322.835 83.1693 322.457C79.9773 309.26 77.7762 296.085 77.8487 282.45C77.8602 280.273 77.8427 277.995 77.794 275.793C75.2915 274.758 72.8398 273.057 70.523 271.652C61.5523 266.217 53.8185 260.027 46.1058 252.947C44.5843 251.552 40.1002 246.475 39.1732 245.826C38.2415 252.077 36.2585 258.198 35.4027 264.503C34.851 268.568 33.6385 297.128 35.8778 300.008C36.8673 301.28 39.04 302.27 40.3927 303.212C50.6365 310.34 61.02 315.905 72.7602 320.158C75.1275 321.015 77.7022 322.185 80.1837 322.628ZM63.2967 110.224C66.921 108.087 70.0425 106.903 73.836 105.196C86.9367 99.5607 96.5253 98.036 110.235 95.2757C111.945 91.202 113.323 86.8765 114.991 82.9818C119.1 73.39 125.368 61.326 131.796 53.0687C127.011 53.3202 121.511 52.3832 116.42 52.599C111.2 53.0837 105.918 53.152 100.716 53.7402C97.428 54.1122 80.332 57.2013 78.3942 59.5018C77.318 60.7795 76.7085 62.929 75.9242 64.4283C71.427 73.0255 67.9517 84.1115 66.213 93.6562C65.219 99.113 64.6912 104.863 63.2967 110.224ZM103.027 341.573C105.726 346.625 108.44 352.363 111.622 357.105C116.74 364.735 122.507 372.31 128.954 378.853C130.955 380.883 132.881 383.753 135.798 383.565L136.124 383.508C140.123 382.823 145.15 382.89 149.393 382.267C162.679 380.32 173.028 376.323 185.283 371.473C174.763 363.283 165.031 355.755 156.591 345.188C155.05 343.258 153.321 341.47 152.064 339.34L151.592 339.133C141.087 342.163 124.71 342.938 113.75 342.445C110.316 342.293 106.582 341.745 103.027 341.573ZM309.022 282.15C297.857 285.745 281.628 290.702 269.818 290.655C268.95 297.67 259.2 321.085 255.025 326.675C256.045 326.772 257.09 326.815 258.057 327.128C260.05 327.49 266.322 328.64 267.87 328.793C272.945 329.3 298.325 329.66 301.665 327.547C302.448 326.317 303.195 323.012 303.628 321.365C306.965 308.7 309.54 295.545 309.163 282.4C309.158 282.225 309.125 282.22 309.022 282.15ZM317.203 324.078C318.305 323.568 319.502 322.94 320.68 322.693C329.667 320.465 344.577 312.602 352.645 307.65C355.44 305.935 358.708 303.4 361.478 301.492C363.553 290.545 362.722 277.53 362.122 266.375C362.01 264.265 360.112 251.355 359.062 250.42C353.255 257.21 340.938 266.293 333.378 271.312C330.148 273.455 325.993 275.365 322.85 277.655C324.115 290.525 321.553 311.94 317.203 324.078ZM212.128 71.8637C214.55 74.1885 217.191 76.5205 219.516 78.881C225.746 85.24 231.456 92.089 236.59 99.3623C237.141 100.212 237.091 100.482 237.887 100.713C251.342 97.0373 263.622 95.7545 277.557 95.3333C271.925 82.037 267.042 71.1525 258.155 59.5438C257.477 58.6578 255.86 55.8667 255.283 55.5407C250.868 57.3347 246.07 57.9358 241.444 59.3493C230.439 62.711 222.242 66.638 212.128 71.8637ZM165.333 334.19C168.197 337.093 170.946 340.705 173.796 343.485C181.459 350.96 191.206 358.865 200.213 364.71C200.966 364.487 201.023 364.345 201.584 363.742C206.331 359.96 211.599 356.773 216.245 352.888C221.946 348.123 227.367 343.017 232.337 337.497C233.144 336.602 233.825 335.943 234.829 335.26C232.779 334.798 230.835 333.903 228.897 333.13C219.176 329.253 210.064 324.1 201.458 318.165C200.686 317.635 199.528 316.655 198.574 316.715C190.487 322.082 181.994 326.81 173.171 330.853C170.941 331.888 167.614 333.52 165.333 334.19ZM248.696 339.94C246.537 342.395 243.743 346.105 241.671 348.325C235.201 355.253 221.359 368.075 213.223 372.515C225.815 377.518 237.227 381.847 250.883 383.172C253.995 383.475 255.658 383.938 259.062 384.038C260.2 384.235 261.338 384.443 262.47 384.658C270.535 376.555 278.06 368.44 284.415 358.875C287.828 353.738 290.707 348.388 293.655 342.978C279.272 343.093 265.748 343.61 251.648 340.51C250.828 340.328 249.482 339.965 248.696 339.94ZM98.677 326.96C104.716 327.045 111.504 328.625 117.643 328.758C124.827 328.913 133.343 328.442 140.439 327.175C141.455 327.022 141.747 327.147 142.457 326.555C142.36 325.615 138.464 318.47 137.777 316.89C134.853 310.173 129.425 297.483 128.809 290.348L128.452 290.265C125.505 289.615 121.722 289.495 119.265 289.043C113.486 287.975 96.4078 284.52 91.693 281.892C91.936 292.24 93.1057 302.542 95.1885 312.68C96.0265 316.58 98.2925 323.18 98.677 326.96ZM67.673 193.932L67.5325 194.156C66.106 196.383 63.7167 198.941 62.1107 201.31C59.1557 205.67 56.2555 210.221 53.6698 214.804C50.5735 220.293 48.202 226.834 44.9972 232.247C49.1972 236.161 52.8742 240.546 57.2015 244.332C61.8485 248.398 67.333 253.373 72.6143 256.535C73.9848 257.363 77.61 259.732 78.6913 260.747C81.4875 246.981 85.1272 236.733 90.7467 224.037C84.1363 217.039 78.8365 210.795 73.2913 202.859C72.2378 201.351 68.2005 194.471 67.673 193.932ZM104.338 149.032C103.853 146.599 103.874 144.222 103.705 141.757C102.998 131.395 104.248 120.84 105.436 110.501L105.078 110.345C93.3395 112.146 81.2895 116.75 70.569 121.76C69.338 122.466 64.342 124.243 64.606 125.928C65.4553 131.35 65.256 137.264 65.9993 142.669C66.9978 149.929 68.9455 157.671 70.9122 164.689C71.3352 166.291 71.735 167.684 72.2487 169.259C77.3672 163.391 97.0065 151.995 104.338 149.032ZM125.186 94.7915C132.51 94.8847 156.265 97.5775 162.057 100.776L163.699 98.146C167.882 91.3943 176.024 82.823 181.706 77.3392C183.87 75.2512 186.813 72.9567 188.786 70.881C185.664 69.2822 182.603 67.4145 179.469 65.9145C170.853 61.7917 162.022 58.5635 152.695 56.4725C151.278 56.1547 148.368 54.9305 147.335 54.8435C145.994 57.5695 143.135 61.0195 141.312 63.5892C134.367 73.3835 129.478 83.6025 125.186 94.7915ZM307.965 225.169C312.317 234.704 318.64 252.95 319.215 263.258C321.967 262.153 324.868 260.19 327.348 258.538C335.08 253.505 343.61 245.603 350.392 239.314C351.642 238.154 355.015 235.18 355.807 233.841C355.915 232.607 355.192 231.272 354.71 230.153C348.987 216.904 341.913 204.604 332.703 193.459C332.53 193.249 332.42 193.199 332.177 193.102C328.52 200.607 320.61 210.439 315.198 216.913C312.91 219.65 310.267 222.334 307.965 225.169ZM199.838 14.4669C196.133 16.6268 190.787 18.9309 186.692 21.1166C174.464 27.6435 167.153 33.8945 156.939 42.8918C165.519 46.0815 174.151 48.0785 182.585 51.992C189.366 55.1383 194.953 58.706 201.349 62.277C203.043 61.9285 208.957 57.9035 210.935 56.8613C221.175 51.465 232.313 46.9955 243.585 44.3047C239.018 40.1157 234.028 35.477 229.113 31.7572C220.944 25.5745 211.616 20.2951 202.38 15.8866C201.486 15.4598 200.618 14.8265 199.838 14.4669ZM294.138 110.548C293.9 111.498 295.1 121.872 295.195 124.357C295.403 129.731 295.838 135.374 295.545 140.84C295.468 142.294 294.738 149.389 295.295 149.749C297.805 151.371 304.455 155.025 307.075 156.376C315.403 160.672 321.782 166.972 329.125 171.971C329.558 169.703 330.235 168.339 330.892 166.188C333.642 158.567 334.953 150.564 336.408 142.613C337.383 137.281 337.057 131.295 337.84 125.874C335.402 125.237 328.883 121.499 325.858 120.211C315.693 115.777 305.048 112.534 294.138 110.548ZM368.617 213.656C375.142 202.445 380.295 190.19 383.427 177.608C383.77 176.233 384.915 174.072 384.543 172.91C383.945 171.036 381.96 168.441 380.797 166.819C374.282 157.582 366.658 149.182 358.095 141.808C356.398 140.342 352.93 137.453 351.035 136.336C350.74 148.991 345.365 169.212 340.36 180.862C341.412 182.556 342.82 184.148 344.133 185.686C351.373 194.172 357.373 203.95 362.39 213.896C363.16 215.419 364.037 217.485 365.025 218.818C365.875 218.517 367.957 214.682 368.617 213.656ZM270.895 53.5125C279.282 64.0935 286.302 79.6075 290.997 92.2613C291.477 93.552 291.802 95.127 292.33 96.35C306.167 98.1715 319.237 102.041 331.865 107.804C332.82 108.24 334.063 108.939 334.98 109.28C334.093 97.1537 331.393 85.2287 326.975 73.9017C324.875 68.597 322.868 64.652 320.628 59.5925C314.09 58.3702 307.523 56.1212 301.043 55.0137C292.52 53.5567 284.02 53.2867 275.413 53.4897C273.955 53.524 272.34 53.5728 270.895 53.5125Z" fill="#FEFEFD"/>
<path d="M200.274 174.451C201.224 174.836 203.445 176.653 204.419 177.362C212.03 182.906 218.716 190.028 224.123 197.719C224.596 198.392 225.186 199.539 224.838 200.261C221.128 207.958 206.916 220.997 200.256 225.202C199.513 224.95 197.197 223.105 196.49 222.542C189.722 217.155 183.249 210.926 178.135 203.925C177.057 202.448 176.013 201.041 174.885 199.614C176.792 197.683 178.948 194.029 180.766 191.775C186.317 185.01 192.9 179.164 200.274 174.451Z" fill="#FEFEFD"/>
</svg>
