<svg width="400" height="400" viewBox="0 0 400 400" fill="none" xmlns="http://www.w3.org/2000/svg">
<path d="M120.383 350C191.25 350 237.35 313 237.35 257.333C237.35 214.167 209.317 186.733 159.183 175.367L127.017 165.85C98.7834 159.6 82.3001 152.1 86.1834 132.933C89.4167 116.983 99.0667 107.983 121.55 107.983C192.967 107.983 219.433 132.933 219.433 132.933V72.9333C219.433 72.9333 193.667 50 121.55 50C53.5501 50 16.6667 84.5 16.6667 137.883C16.6667 181.05 42.2334 206.167 94.0834 218.083L99.6501 219.467C107.533 221.867 118.183 225.05 131.583 229C158.083 235.25 164.9 241.883 164.9 261.767C164.9 279.933 145.733 290.267 120.4 290.267C47.3501 290.267 16.6667 253.85 16.6667 253.85V320.333C16.6667 320.333 35.8667 350 120.383 350Z" fill="url(#paint0_linear_100_60149)"/>
<path d="M339.555 345.528C364.638 345.528 383.322 327.645 383.322 303.428C383.322 278.695 365.172 261.328 339.555 261.328C314.472 261.328 296.322 278.695 296.322 303.428C296.322 328.161 314.472 345.528 339.555 345.528Z" fill="#E80000"/>
<defs>
<linearGradient id="paint0_linear_100_60149" x1="11050.8" y1="50" x2="11050.8" y2="30050" gradientUnits="userSpaceOnUse">
<stop stop-color="#9D39FF"/>
<stop offset="1" stop-color="#A380FF"/>
</linearGradient>
</defs>
</svg>
